<svg width="500" height="373" viewBox="0 0 500 373" fill="none" xmlns="http://www.w3.org/2000/svg">
<path d="M500 327.446H0V327.696H500V327.446Z" fill="#E0E0E0"/>
<path d="M377.667 338.037H343.263V338.287H377.667V338.037Z" fill="#E0E0E0"/>
<path d="M111.04 338.162H91.681V338.412H111.04V338.162Z" fill="#E0E0E0"/>
<path d="M251 337.576H211.761V337.826H251V337.576Z" fill="#E0E0E0"/>
<path d="M210.761 334.02H193.22V334.27H210.761V334.02Z" fill="#E0E0E0"/>
<path d="M424.555 334.145H371.57V334.395H424.555V334.145Z" fill="#E0E0E0"/>
<path d="M237.014 282.848H43.915C40.768 282.848 38.207 280.287 38.207 277.14V5.708C38.207 2.561 40.768 0 43.915 0H237.014C240.16 0 242.721 2.561 242.721 5.708V277.14C242.721 280.287 240.16 282.848 237.014 282.848ZM43.915 0.250999C40.905 0.250999 38.457 2.699 38.457 5.709V277.141C38.457 280.151 40.905 282.599 43.915 282.599H237.014C240.023 282.599 242.471 280.151 242.471 277.141V5.708C242.471 2.699 240.023 0.25 237.014 0.25L43.915 0.250999Z" fill="#E0E0E0"/>
<path d="M453.31 282.848H260.212C257.066 282.848 254.505 280.287 254.505 277.14V5.708C254.505 2.561 257.066 0 260.212 0H453.31C456.458 0 459.018 2.561 459.018 5.708V277.14C459.019 280.287 456.458 282.848 453.31 282.848ZM260.212 0.250999C257.203 0.250999 254.755 2.699 254.755 5.709V277.141C254.755 280.151 257.203 282.599 260.212 282.599H453.31C456.32 282.599 458.768 280.151 458.768 277.141V5.708C458.768 2.699 456.32 0.25 453.31 0.25L260.212 0.250999Z" fill="#E0E0E0"/>
<path d="M439.313 202.276C427.007 183.549 438.243 163.413 436.37 142.581C434.497 121.749 414.7 117.201 418.446 99.544C422.789 79.071 411.223 59.415 398.114 59.415C385.005 59.415 373.439 79.071 377.782 99.544C381.527 117.201 361.73 121.749 359.857 142.581C357.984 163.413 369.221 183.548 356.914 202.276C344.608 221.003 347.837 245.809 354.774 258.119C356.685 261.51 358.934 264.513 361.387 267.169C381.068 288.483 415.161 288.483 434.842 267.169C437.294 264.513 439.544 261.511 441.455 258.119C448.39 245.809 451.62 221.003 439.313 202.276Z" fill="#E0E0E0"/>
<path d="M404.333 327.446H391.893V222.712C391.893 219.291 394.692 216.492 398.113 216.492C401.534 216.492 404.333 219.291 404.333 222.712V327.446Z" fill="#F0F0F0"/>
<path d="M319.909 327.446H302.973V222.72C302.973 218.062 306.784 214.252 311.441 214.252C316.099 214.252 319.909 218.063 319.909 222.72V327.446Z" fill="#E0E0E0"/>
<path d="M311.441 299.195C340.253 299.195 363.609 275.839 363.609 247.027C363.609 218.215 340.253 194.859 311.441 194.859C282.629 194.859 259.273 218.215 259.273 247.027C259.273 275.839 282.629 299.195 311.441 299.195Z" fill="#F0F0F0"/>
<path d="M372.745 231.385C375.483 220.367 368.769 209.215 357.75 206.477C346.731 203.74 335.579 210.453 332.842 221.472C330.105 232.491 336.818 243.643 347.837 246.38C358.856 249.118 370.008 242.404 372.745 231.385Z" fill="#F0F0F0"/>
<path d="M281.274 216.209C282.355 209.573 277.852 203.318 271.216 202.237C264.581 201.156 258.325 205.659 257.244 212.294C256.163 218.929 260.666 225.184 267.302 226.265C273.937 227.346 280.193 222.844 281.274 216.209Z" fill="#F0F0F0"/>
<path d="M282.484 216.492C287.202 216.492 291.027 212.667 291.027 207.949C291.027 203.231 287.202 199.406 282.484 199.406C277.766 199.406 273.941 203.231 273.941 207.949C273.941 212.667 277.766 216.492 282.484 216.492Z" fill="#F0F0F0"/>
<path d="M203.97 264.94C195.284 266.231 187.755 269.379 181.254 273.608C181.192 265.693 179.743 258.175 176.023 252.104C170.36 257.623 165.773 264.76 162.068 272.437C160.68 258.004 156.891 244.021 148.5 235.183C135.928 243.091 129.448 256.272 126.366 270.231C121.357 261.286 114.446 253.03 104.903 247.027C97.211 255.129 94.755 266.331 94.959 277.804C86.221 267.631 76.516 259.688 67.057 258.755C64.728 274.87 69.688 290.063 75.991 302.043C84.259 317.756 100.707 327.447 118.463 327.447H159.548C177.059 327.447 193.476 318.104 201.692 302.641C206.895 292.847 209.37 280.234 203.97 264.94Z" fill="#E0E0E0"/>
<path d="M192.256 57.187C197.333 42.316 193.303 31.729 180.892 31.729C173.109 31.729 163.458 35.896 154.06 42.681C152.998 38.813 150.008 36.495 145.197 36.495C136.731 36.495 125.061 43.657 115.906 53.762C113.691 51.509 110.485 50.129 106.366 49.907C98.264 49.451 88.45 53.566 79.918 60.26C79.179 59.14 77.912 58.437 76.163 58.333C71.494 58.073 65.174 62.227 62.034 67.605C61.838 67.944 61.665 68.269 61.491 68.595H71.189H78.905H105.708H118.898H129.154H144.951H147.818H187.004H194.72C195.119 63.906 194.29 59.986 192.256 57.187Z" fill="#F0F0F0"/>
<path d="M192.668 147.48C195.148 140.216 193.179 135.044 187.117 135.044C183.315 135.044 178.601 137.08 174.011 140.394C173.493 138.505 172.032 137.373 169.682 137.373C165.546 137.373 159.846 140.871 155.374 145.808C154.292 144.708 152.726 144.033 150.714 143.925C146.756 143.702 141.963 145.713 137.795 148.982C137.434 148.435 136.815 148.091 135.961 148.041C133.68 147.914 130.593 149.943 129.059 152.57C128.963 152.735 128.879 152.894 128.794 153.054H133.531H137.3H150.393H156.836H161.846H169.563H170.963H190.104H193.873C194.066 150.762 193.661 148.847 192.668 147.48Z" fill="#F0F0F0"/>
<path d="M342.767 92.541C342.26 92.467 341.745 92.429 341.223 92.429C341.702 85.173 338.928 80.54 333.003 80.54C328.728 80.54 323.483 82.959 318.136 87.052C319.666 72.968 314.767 63.814 303.674 63.814C294.725 63.814 283.397 69.768 272.207 79.48C271.227 73.954 267.93 70.642 262.39 70.642C252.658 70.642 238.83 80.875 227.742 95.313C227.742 95.313 227.738 95.332 227.728 95.313C225.333 92.094 221.733 90.103 217.002 89.787C207.736 89.136 196.23 95.015 186.029 104.597C185.253 102.978 183.84 101.974 181.819 101.843C176.752 101.489 169.769 106.773 165.713 113.844H177.534H185.548H216.366H230.799H243.651H261.905H296.393H309.836H314.62H333.754H350.922C355.271 103.128 351.807 93.751 342.767 92.541Z" fill="#F0F0F0"/>
<path d="M250 372.609C357.082 372.609 443.889 367.54 443.889 361.286C443.889 355.032 357.082 349.963 250 349.963C142.918 349.963 56.111 355.032 56.111 361.286C56.111 367.54 142.918 372.609 250 372.609Z" fill="#F5F5F5"/>
<path d="M48.856 95.6099L276.827 128.425L307.422 159.3L48.856 95.6099Z" fill="#407BFF"/>
<path opacity="0.6" d="M48.856 95.6099L276.827 128.425L307.422 159.3L48.856 95.6099Z" fill="white"/>
<path d="M48.856 95.6099L276.827 128.425L266.248 173.07L48.856 95.6099Z" fill="#407BFF"/>
<path opacity="0.2" d="M48.856 95.6099L276.827 128.425L266.248 173.07L48.856 95.6099Z" fill="black"/>
<path d="M261.566 43.924L274.803 105.951C275.52 109.31 273.358 112.645 269.999 113.362L151.92 138.561C148.561 139.278 145.226 137.116 144.509 133.757L131.272 71.73C130.897 69.974 131.31 68.22 132.268 66.845C133.146 65.599 134.473 64.661 136.076 64.319L254.155 39.12C255.758 38.778 257.353 39.092 258.663 39.871C260.098 40.735 261.192 42.168 261.566 43.924Z" fill="#407BFF"/>
<path opacity="0.4" d="M261.566 43.924L274.803 105.951C275.52 109.31 273.358 112.645 269.999 113.362L151.92 138.561C148.561 139.278 145.226 137.116 144.509 133.757L131.272 71.73C130.897 69.974 131.31 68.22 132.268 66.845C133.146 65.599 134.473 64.661 136.076 64.319L254.155 39.12C255.758 38.778 257.353 39.092 258.663 39.871C260.098 40.735 261.192 42.168 261.566 43.924Z" fill="black"/>
<path d="M258.663 39.8709L219.206 88.303C211.671 97.553 198.712 100.318 188.057 94.9499L132.267 66.8439C133.145 65.5979 134.472 64.6599 136.075 64.3179L254.154 39.1189C255.759 38.7769 257.353 39.0919 258.663 39.8709Z" fill="#407BFF"/>
<path d="M48.856 95.6099L236.889 140.295L266.248 173.07L48.856 95.6099Z" fill="#407BFF"/>
<path opacity="0.6" d="M48.856 95.6099L236.889 140.295L266.248 173.07L48.856 95.6099Z" fill="white"/>
<path d="M117.442 138.7L116.936 139.564L137.857 151.821L138.363 150.957L117.442 138.7Z" fill="#407BFF"/>
<path d="M147.606 156.367L147.1 157.23L154.626 161.64L155.132 160.776L147.606 156.367Z" fill="#407BFF"/>
<path d="M48.856 95.6099L236.889 140.295L200.34 184.351L48.856 95.6099Z" fill="#407BFF"/>
<path d="M300.359 200.31C300.115 200.31 299.866 200.264 299.624 200.168L268.99 188.04C267.963 187.634 267.46 186.472 267.867 185.444C268.273 184.418 269.43 183.912 270.463 184.321L301.097 196.449C302.124 196.855 302.627 198.017 302.22 199.045C301.909 199.83 301.156 200.31 300.359 200.31Z" fill="#407BFF"/>
<path opacity="0.3" d="M300.359 200.31C300.115 200.31 299.866 200.264 299.624 200.168L268.99 188.04C267.963 187.634 267.46 186.472 267.867 185.444C268.273 184.418 269.43 183.912 270.463 184.321L301.097 196.449C302.124 196.855 302.627 198.017 302.22 199.045C301.909 199.83 301.156 200.31 300.359 200.31Z" fill="black"/>
<path d="M298.555 182.743C298.311 182.743 298.062 182.698 297.82 182.602L281.368 176.088C280.341 175.682 279.838 174.52 280.245 173.492C280.65 172.466 281.809 171.96 282.841 172.369L299.293 178.883C300.32 179.289 300.823 180.451 300.416 181.479C300.104 182.264 299.352 182.743 298.555 182.743Z" fill="#407BFF"/>
<path opacity="0.5" d="M298.555 182.743C298.311 182.743 298.062 182.698 297.82 182.602L281.368 176.088C280.341 175.682 279.838 174.52 280.245 173.492C280.65 172.466 281.809 171.96 282.841 172.369L299.293 178.883C300.32 179.289 300.823 180.451 300.416 181.479C300.104 182.264 299.352 182.743 298.555 182.743Z" fill="white"/>
<path d="M264.161 200.007C263.917 200.007 263.668 199.961 263.426 199.865L233.557 188.039C232.53 187.633 232.027 186.47 232.434 185.443C232.84 184.416 234.001 183.913 235.03 184.32L264.899 196.146C265.926 196.552 266.429 197.714 266.022 198.742C265.711 199.528 264.958 200.007 264.161 200.007Z" fill="#407BFF"/>
<path opacity="0.3" d="M264.161 200.007C263.917 200.007 263.668 199.961 263.426 199.865L233.557 188.039C232.53 187.633 232.027 186.47 232.434 185.443C232.84 184.416 234.001 183.913 235.03 184.32L264.899 196.146C265.926 196.552 266.429 197.714 266.022 198.742C265.711 199.528 264.958 200.007 264.161 200.007Z" fill="black"/>
<path d="M372.301 109.869C374.949 115.043 377.38 120.218 379.688 125.523C381.979 130.828 384.154 136.188 386.027 141.814L386.711 143.947C386.826 144.326 387.004 144.949 387.097 145.392C387.191 145.854 387.291 146.331 387.345 146.754C387.61 148.496 387.656 150.07 387.686 151.618C387.735 154.702 387.527 157.643 387.27 160.568C386.71 166.409 385.799 172.092 384.547 177.791L379.065 177.183C378.994 171.55 378.941 165.862 378.746 160.313C378.647 157.544 378.489 154.781 378.208 152.176C378.066 150.882 377.857 149.613 377.614 148.551C377.557 148.27 377.482 148.056 377.418 147.824C377.34 147.576 377.305 147.518 377.197 147.221L376.443 145.33C374.354 140.27 372.002 135.165 369.604 130.086L362.345 114.853L372.301 109.869Z" fill="#E4897B"/>
<path d="M379.143 175.468L376.583 180.256L384.759 182.537C384.759 182.537 386.316 178.685 384.462 175.648L379.143 175.468Z" fill="#E4897B"/>
<path d="M373.448 187.159L380.966 187.753L384.76 182.538L376.583 180.256L373.448 187.159Z" fill="#E4897B"/>
<path d="M337.873 75.312C337.755 75.893 337.352 76.301 336.972 76.224C336.592 76.147 336.38 75.614 336.498 75.033C336.616 74.452 337.019 74.044 337.399 74.121C337.779 74.199 337.991 74.732 337.873 75.312Z" fill="#263238"/>
<path d="M337.405 76.312C337.405 76.312 335.404 79.3939 333.622 80.7139C334.454 81.8819 336.29 81.799 336.29 81.799L337.405 76.312Z" fill="#DE5753"/>
<path d="M340.654 72.5199C340.56 72.5199 340.467 72.4819 340.398 72.4079C339.357 71.2799 338.12 71.4639 338.065 71.4699C337.881 71.5029 337.697 71.373 337.666 71.183C337.635 70.994 337.762 70.8149 337.95 70.7829C338.016 70.7709 339.602 70.52 340.91 71.934C341.04 72.075 341.031 72.2949 340.89 72.4259C340.823 72.4889 340.739 72.5199 340.654 72.5199Z" fill="#263238"/>
<path d="M354.414 83.48C353.36 88.854 352.309 98.702 356.069 102.288C356.069 102.288 354.6 107.74 344.614 107.74C333.633 107.74 339.366 102.289 339.366 102.289C345.359 100.858 345.204 96.411 344.16 92.236L354.414 83.48Z" fill="#E4897B"/>
<path d="M357.577 105.682C358.37 103.048 359.243 100.034 357.437 99.09C355.45 98.051 344.575 96.992 340.825 98.942C337.075 100.892 338.139 106.234 338.139 106.234L357.577 105.682Z" fill="#263238"/>
<path d="M380.643 355.069C379.89 355.069 379.163 354.954 378.879 354.584C378.76 354.429 378.664 354.159 378.885 353.758C379 353.548 379.185 353.411 379.431 353.353C380.51 353.105 382.533 354.491 382.619 354.549C382.676 354.588 382.704 354.656 382.691 354.725C382.678 354.792 382.628 354.846 382.561 354.862C382.184 354.951 381.401 355.069 380.643 355.069ZM379.725 353.668C379.649 353.668 379.577 353.675 379.511 353.691C379.363 353.726 379.257 353.803 379.19 353.925C379.033 354.211 379.126 354.332 379.156 354.372C379.47 354.784 380.972 354.791 382.068 354.605C381.435 354.216 380.393 353.668 379.725 353.668Z" fill="#407BFF"/>
<path d="M382.52 354.865C382.492 354.865 382.463 354.858 382.437 354.844C381.677 354.432 380.207 352.823 380.362 352.003C380.39 351.855 380.5 351.598 380.916 351.546C381.18 351.516 381.435 351.588 381.657 351.77C382.511 352.467 382.686 354.587 382.694 354.677C382.699 354.74 382.669 354.802 382.615 354.836C382.586 354.857 382.553 354.865 382.52 354.865ZM381.036 351.888C381.011 351.888 380.984 351.889 380.958 351.893C380.731 351.92 380.712 352.025 380.703 352.069C380.612 352.554 381.548 353.77 382.304 354.342C382.218 353.723 381.984 352.488 381.436 352.04C381.31 351.938 381.18 351.888 381.036 351.888Z" fill="#407BFF"/>
<path d="M336.528 355.07C335.586 355.07 334.676 354.94 334.371 354.516C334.264 354.368 334.18 354.115 334.385 353.755C334.5 353.553 334.687 353.416 334.938 353.348C336.154 353.023 338.728 354.479 338.836 354.541C338.899 354.576 338.933 354.647 338.921 354.72C338.909 354.791 338.855 354.848 338.783 354.863C338.314 354.956 337.407 355.07 336.528 355.07ZM335.364 353.644C335.242 353.644 335.129 353.657 335.028 353.684C334.867 353.728 334.756 353.807 334.687 353.927C334.563 354.144 334.608 354.25 334.653 354.312C334.984 354.771 336.839 354.795 338.217 354.605C337.536 354.255 336.223 353.644 335.364 353.644Z" fill="#407BFF"/>
<path d="M338.749 354.865C338.725 354.865 338.7 354.86 338.678 354.85C337.792 354.453 336.036 352.865 336.169 352.033C336.201 351.838 336.339 351.595 336.817 351.547C337.172 351.513 337.497 351.611 337.782 351.845C338.717 352.613 338.914 354.591 338.922 354.675C338.928 354.736 338.901 354.797 338.851 354.833C338.82 354.855 338.785 354.865 338.749 354.865ZM336.957 351.888C336.923 351.888 336.888 351.89 336.852 351.893C336.539 351.925 336.519 352.048 336.512 352.089C336.432 352.588 337.625 353.836 338.53 354.379C338.436 353.802 338.174 352.617 337.56 352.113C337.376 351.962 337.178 351.888 336.957 351.888Z" fill="#407BFF"/>
<path d="M346.827 354.692H339.481L338.749 337.68H346.095L346.827 354.692Z" fill="#E4897B"/>
<path d="M390.936 354.692H383.589L379.897 337.68H387.243L390.936 354.692Z" fill="#E4897B"/>
<path d="M383.067 353.841H391.32C391.62 353.841 391.88 354.05 391.946 354.343L393.397 360.873C393.548 361.55 393.015 362.191 392.321 362.179C389.44 362.13 388.04 361.96 384.41 361.96C382.177 361.96 377.577 362.192 374.493 362.192C371.477 362.192 371.007 359.143 372.269 358.867C377.929 357.629 380.062 355.921 381.874 354.292C382.201 353.999 382.628 353.841 383.067 353.841Z" fill="#263238"/>
<path d="M339.529 353.841H347.552C347.852 353.841 348.112 354.05 348.178 354.343L349.629 360.873C349.779 361.55 349.265 362.191 348.572 362.18C345.678 362.131 341.496 361.961 337.859 361.961C333.606 361.961 329.933 362.193 324.945 362.193C321.929 362.193 321.092 359.144 322.355 358.868C328.102 357.611 332.794 357.476 337.761 354.414C338.299 354.081 338.895 353.841 339.529 353.841Z" fill="#263238"/>
<path d="M335.982 115.192C329.753 114.705 323.765 113.899 317.675 112.758C314.644 112.176 311.607 111.525 308.572 110.708C305.532 109.893 302.487 108.969 299.409 107.684C298.64 107.368 297.863 107.013 297.087 106.644C296.114 106.163 295.305 105.663 294.593 105.189C293.148 104.235 291.912 103.251 290.681 102.27C288.235 100.311 285.958 98.275 283.712 96.217C279.24 92.081 274.997 87.8 270.911 83.296L274.59 79.186L289.099 89.613C291.494 91.34 293.911 93.026 296.289 94.617C297.474 95.404 298.685 96.151 299.787 96.773C300.346 97.09 300.843 97.327 301.227 97.479C301.822 97.712 302.424 97.942 303.056 98.153C308.135 99.847 313.878 100.935 319.582 101.854C325.293 102.758 331.193 103.502 336.892 104.093L335.982 115.192Z" fill="#E4897B"/>
<path d="M369.223 103.949C376.108 105.528 383.07 125.659 383.07 125.659L368.897 135.825C368.897 135.825 364.938 126.449 361.043 118.249C356.961 109.657 362.183 102.335 369.223 103.949Z" fill="#407BFF"/>
<path opacity="0.4" d="M369.223 103.949C376.108 105.528 383.07 125.659 383.07 125.659L368.897 135.825C368.897 135.825 364.938 126.449 361.043 118.249C356.961 109.657 362.183 102.335 369.223 103.949Z" fill="black"/>
<path d="M365.25 114.948L362.44 121.238C365.35 127.518 368.01 133.738 368.72 135.398C368.62 127.968 367.21 118.748 365.25 114.948Z" fill="#407BFF"/>
<path opacity="0.6" d="M365.25 114.948L362.44 121.238C365.35 127.518 368.01 133.738 368.72 135.398C368.62 127.968 367.21 118.748 365.25 114.948Z" fill="black"/>
<path d="M328.066 104.327C328.066 104.327 320.247 113.159 327.631 167.824C339.47 167.824 361.163 167.824 366.924 167.824C367.195 161.792 363.405 132.368 369.222 103.948C369.222 103.948 362.487 102.596 356.068 102.287C351.047 102.045 343.779 101.885 339.365 102.288C333.547 102.819 328.066 104.327 328.066 104.327Z" fill="#407BFF"/>
<path opacity="0.4" d="M328.066 104.327C328.066 104.327 320.247 113.159 327.631 167.824C339.47 167.824 361.163 167.824 366.924 167.824C367.195 161.792 363.405 132.368 369.222 103.948C369.222 103.948 362.487 102.596 356.068 102.287C351.047 102.045 343.779 101.885 339.365 102.288C333.547 102.819 328.066 104.327 328.066 104.327Z" fill="black"/>
<path d="M325.16 114.948C324.9 117.018 324.7 119.468 324.57 122.358C327.82 121.348 331.86 119.728 335.51 117.218L325.16 114.948Z" fill="#407BFF"/>
<path opacity="0.6" d="M325.16 114.948C324.9 117.018 324.7 119.468 324.57 122.358C327.82 121.348 331.86 119.728 335.51 117.218L325.16 114.948Z" fill="black"/>
<path d="M341.968 116.02C336.711 120.678 316.629 120.212 316.629 120.212L315.967 100.798C315.967 100.798 327.352 102.467 336.436 102.282C347.658 102.055 347.737 110.908 341.968 116.02Z" fill="#407BFF"/>
<path opacity="0.4" d="M341.968 116.02C336.711 120.678 316.629 120.212 316.629 120.212L315.967 100.798C315.967 100.798 327.352 102.467 336.436 102.282C347.658 102.055 347.737 110.908 341.968 116.02Z" fill="black"/>
<path d="M274.769 79.2859L269.726 73.3989L264.343 79.3609C264.343 79.3609 267.657 84.9359 272.935 84.0559L274.769 79.2859Z" fill="#E4897B"/>
<path d="M262.607 66.533L260.667 74.215L264.343 79.362L269.726 73.399L262.607 66.533Z" fill="#E4897B"/>
<path d="M338.751 337.684L339.127 346.453H346.476L346.1 337.684H338.751Z" fill="#CE6F64"/>
<path d="M387.246 337.684H379.896L381.803 346.453H389.153L387.246 337.684Z" fill="#CE6F64"/>
<path d="M343.173 68.01C336.583 64.965 334.5 51.673 353.458 54.965C353.458 54.965 350.601 58.132 356.405 60.132C362.208 62.131 357.35 74.562 343.173 68.01Z" fill="#263238"/>
<path d="M357.491 78.018C355.604 85.06 354.857 89.278 350.511 92.207C343.974 96.612 335.835 91.557 335.58 84.092C335.351 77.373 338.476 66.985 346.033 65.566C353.479 64.168 359.379 70.976 357.491 78.018Z" fill="#E4897B"/>
<path d="M353.2 58.543C357.686 61.052 363.768 62.548 363.157 66.105C362.41 70.453 366.834 67.733 365.804 74.211C365.131 78.441 357.329 91.259 351.837 90.633C343.581 89.692 344.627 77.081 344.6 70.454C344.583 66.548 344.4 53.622 353.2 58.543Z" fill="#263238"/>
<path d="M343.61 64.1589C341.61 64.6309 338.959 76.1589 346.706 77.2149C355.623 78.4299 343.61 64.1589 343.61 64.1589Z" fill="#263238"/>
<path d="M343.813 68.251C341.362 68.467 335.834 65.517 336.494 61.08C336.494 61.08 340.016 66.272 343.813 68.251Z" fill="#263238"/>
<path d="M347.446 78.1359C346.679 79.8849 345.227 81.2609 343.822 81.9929C341.708 83.0929 340.521 81.4839 340.999 79.3699C341.429 77.4669 343.048 74.6009 345.221 74.3659C347.364 74.1339 348.323 76.1359 347.446 78.1359Z" fill="#E4897B"/>
<path d="M358.446 69.997C359.93 69.242 363.31 67.53 364.231 62.673C364.231 62.673 367.532 71.888 358.446 69.997Z" fill="#263238"/>
<path d="M366.793 69.9C366.052 69.466 364.37 68.477 362.007 69.428C362.007 69.428 365.086 65.433 366.793 69.9Z" fill="#263238"/>
<path d="M341.57 167.825C341.57 167.825 349.907 223.967 354.484 245C359.496 268.033 378.379 344.755 378.379 344.755H391.834C391.834 344.755 379.383 269.892 376.523 247.088C373.419 222.338 366.924 167.825 366.924 167.825H341.57Z" fill="#407BFF"/>
<path opacity="0.5" d="M341.57 167.825C341.57 167.825 349.907 223.967 354.484 245C359.496 268.033 378.379 344.755 378.379 344.755H391.834C391.834 344.755 379.383 269.892 376.523 247.088C373.419 222.338 366.924 167.825 366.924 167.825H341.57Z" fill="white"/>
<path d="M376.23 339.798C376.173 339.798 377.619 344.965 377.619 344.965H392.757L392.479 340.354L376.23 339.798Z" fill="#407BFF"/>
<path opacity="0.1" d="M376.23 339.798C376.173 339.798 377.619 344.965 377.619 344.965H392.757L392.479 340.354L376.23 339.798Z" fill="black"/>
<path d="M346.839 187.828C356.479 189.718 355.459 225.668 354.299 244.158C351.519 231.088 347.449 205.938 344.669 188.088C345.309 187.768 346.029 187.668 346.839 187.828Z" fill="#407BFF"/>
<path opacity="0.4" d="M346.839 187.828C356.479 189.718 355.459 225.668 354.299 244.158C351.519 231.088 347.449 205.938 344.669 188.088C345.309 187.768 346.029 187.668 346.839 187.828Z" fill="white"/>
<path d="M327.632 167.825C327.632 167.825 326.62 222.752 327.419 245.155C328.25 268.457 336.389 344.756 336.389 344.756H348.834C348.834 344.756 349.291 269.819 349.844 246.934C350.448 221.985 353.46 167.826 353.46 167.826H327.632V167.825Z" fill="#407BFF"/>
<path opacity="0.5" d="M327.632 167.825C327.632 167.825 326.62 222.752 327.419 245.155C328.25 268.457 336.389 344.756 336.389 344.756H348.834C348.834 344.756 349.291 269.819 349.844 246.934C350.448 221.985 353.46 167.826 353.46 167.826H327.632V167.825Z" fill="white"/>
<path d="M338.981 335.816C338.918 335.816 338.864 335.768 338.857 335.704C336.664 314.587 331.491 263.491 330.836 245.16C330.169 226.449 330.775 184.47 330.977 172.049C330.978 171.981 331.034 171.926 331.102 171.926H331.104C331.173 171.927 331.228 171.984 331.227 172.053C331.025 184.472 330.419 226.446 331.086 245.15C331.74 263.474 336.911 314.563 339.105 335.678C339.113 335.746 339.063 335.808 338.994 335.815C338.99 335.816 338.985 335.816 338.981 335.816Z" fill="#407BFF"/>
<path opacity="0.4" d="M338.981 335.816C338.918 335.816 338.864 335.768 338.857 335.704C336.664 314.587 331.491 263.491 330.836 245.16C330.169 226.449 330.775 184.47 330.977 172.049C330.978 171.981 331.034 171.926 331.102 171.926H331.104C331.173 171.927 331.228 171.984 331.227 172.053C331.025 184.472 330.419 226.446 331.086 245.15C331.74 263.474 336.911 314.563 339.105 335.678C339.113 335.746 339.063 335.808 338.994 335.815C338.99 335.816 338.985 335.816 338.981 335.816Z" fill="white"/>
<path d="M333.994 339.798C333.937 339.798 334.696 344.965 334.696 344.965H349.835L350.244 340.354L333.994 339.798Z" fill="#407BFF"/>
<path opacity="0.1" d="M333.994 339.798C333.937 339.798 334.696 344.965 334.696 344.965H349.835L350.244 340.354L333.994 339.798Z" fill="black"/>
</svg>
