<svg width="500" height="362" viewBox="0 0 500 362" fill="none" xmlns="http://www.w3.org/2000/svg">
<path d="M500 327.446H0V327.696H500V327.446Z" fill="#EBEBEB"/>
<path d="M449.901 343.542H416.779V343.792H449.901V343.542Z" fill="#EBEBEB"/>
<path d="M331.22 346.256H322.527V346.506H331.22V346.256Z" fill="#EBEBEB"/>
<path d="M415.778 334.256H396.586V334.506H415.778V334.256Z" fill="#EBEBEB"/>
<path d="M95.652 335.936H52.459V336.186H95.652V335.936Z" fill="#EBEBEB"/>
<path d="M110.889 335.936H104.556V336.186H110.889V335.936Z" fill="#EBEBEB"/>
<path d="M225.147 340.159H131.471V340.409H225.147V340.159Z" fill="#EBEBEB"/>
<path d="M237.014 282.848H43.915C40.768 282.848 38.207 280.287 38.207 277.14V5.708C38.207 2.561 40.768 0 43.915 0H237.014C240.16 0 242.721 2.561 242.721 5.708V277.14C242.721 280.287 240.16 282.848 237.014 282.848ZM43.915 0.250999C40.905 0.250999 38.457 2.699 38.457 5.709V277.141C38.457 280.151 40.905 282.599 43.915 282.599H237.014C240.023 282.599 242.471 280.151 242.471 277.141V5.708C242.471 2.699 240.023 0.25 237.014 0.25L43.915 0.250999Z" fill="#EBEBEB"/>
<path d="M453.31 282.848H260.212C257.065 282.848 254.505 280.287 254.505 277.14V5.708C254.505 2.561 257.066 0 260.212 0H453.31C456.458 0 459.018 2.561 459.018 5.708V277.14C459.019 280.287 456.458 282.848 453.31 282.848ZM260.212 0.250999C257.203 0.250999 254.755 2.699 254.755 5.709V277.141C254.755 280.151 257.203 282.599 260.212 282.599H453.31C456.32 282.599 458.768 280.151 458.768 277.141V5.708C458.768 2.699 456.32 0.25 453.31 0.25L260.212 0.250999Z" fill="#EBEBEB"/>
<path d="M393.072 21.2111H101.286V157.729H393.072V21.2111Z" fill="#E6E6E6"/>
<path d="M397.468 21.2111H103.34V157.729H397.468V21.2111Z" fill="#F0F0F0"/>
<path d="M393.072 157.729H101.286V164.693H393.072V157.729Z" fill="#E6E6E6"/>
<path d="M404.791 157.729H110.663V164.693H404.791V157.729Z" fill="#F0F0F0"/>
<path d="M391.314 151.575V27.3655L109.494 27.3655V151.575L391.314 151.575Z" fill="#FAFAFA"/>
<path d="M139.733 151.576L156.861 27.3661H183.589L166.46 151.576H139.733Z" fill="white"/>
<path d="M112.343 145.45C112.1 145.45 111.903 145.253 111.903 145.01V31.3691C111.903 31.1261 112.1 30.9291 112.343 30.9291C112.586 30.9291 112.783 31.1261 112.783 31.3691V145.011C112.783 145.253 112.586 145.45 112.343 145.45Z" fill="#F0F0F0"/>
<path d="M172.202 151.576L189.33 27.3661H199.75L182.622 151.576H172.202Z" fill="white"/>
<path d="M391.314 151.575V27.3654H390.533V151.575H391.314Z" fill="#E6E6E6"/>
<path opacity="0.6" d="M398.923 36.6441H107.137L106.571 29.7571H398.357L398.923 36.6441Z" fill="#EBEBEB"/>
<path opacity="0.6" d="M398.923 47.939H107.137L106.571 41.052H398.357L398.923 47.939Z" fill="#EBEBEB"/>
<path opacity="0.6" d="M398.923 59.234H107.137L106.571 52.347H398.357L398.923 59.234Z" fill="#EBEBEB"/>
<path opacity="0.6" d="M398.923 70.5291H107.137L106.571 63.6421H398.357L398.923 70.5291Z" fill="#EBEBEB"/>
<path opacity="0.6" d="M398.923 81.824H107.137L106.571 74.937H398.357L398.923 81.824Z" fill="#EBEBEB"/>
<path opacity="0.6" d="M398.923 93.119H107.137L106.571 86.2321H398.357L398.923 93.119Z" fill="#EBEBEB"/>
<path d="M439 192.048H394.47V327.447H439V192.048Z" fill="#E6E6E6"/>
<path d="M427.109 327.447H439V308.756H414.642L427.109 327.447Z" fill="#FAFAFA"/>
<path d="M317.586 192.048H273.056V327.447H317.586V192.048Z" fill="#E6E6E6"/>
<path d="M439 192.048H307.209V321.014H439V192.048Z" fill="#FAFAFA"/>
<path d="M319.099 327.447H307.209V308.756H331.567L319.099 327.447Z" fill="#FAFAFA"/>
<path d="M429.776 240.105H316.433V272.379H429.776V240.105Z" fill="#F0F0F0"/>
<path d="M429.776 279.277H316.433V311.551H429.776V279.277Z" fill="#F0F0F0"/>
<path d="M407.292 243.556H338.917C336.335 243.556 334.243 241.463 334.243 238.882V237.31H411.967V238.882C411.966 241.463 409.873 243.556 407.292 243.556Z" fill="#FAFAFA"/>
<path d="M429.776 200.932H316.433V233.206H429.776V200.932Z" fill="#F0F0F0"/>
<path d="M407.292 204.383H338.917C336.335 204.383 334.243 202.29 334.243 199.709V198.137H411.967V199.709C411.966 202.29 409.873 204.383 407.292 204.383Z" fill="#FAFAFA"/>
<path d="M407.292 282.728H338.917C336.335 282.728 334.243 280.635 334.243 278.054V276.482H411.967V278.054C411.966 280.635 409.873 282.728 407.292 282.728Z" fill="#FAFAFA"/>
<path d="M53.417 220.915C55.898 213.793 75.46 223.478 83.398 235.281C88.685 243.141 91.915 251.531 93.423 262.802C93.242 249.942 93.037 236.125 92.836 223.086C91.231 219.835 87.565 212.339 84.928 206.399C76.13 186.581 55.21 179.201 47.983 166.688C38.513 150.293 38.568 125.699 46.629 116.824C53.635 109.112 76.834 161.26 79.447 167.086C88.435 187.125 91.048 201.997 92.732 216.404C92.54 204.157 92.357 192.913 92.206 184.237C91.715 155.939 91.101 146.837 90.82 144.036C89.851 142.668 88.708 141.074 88.043 140.219C82.429 132.991 69.972 124.387 63.747 113.88C54.657 98.5391 56.126 80.1781 62.502 73.3411C69.168 66.1921 80.953 83.0881 87.21 99.8291C93.467 116.57 90.793 132.593 92.548 146.496C92.915 149.223 93.292 159.58 93.646 173.947C95.544 158.489 99.325 148.133 106.332 138.483C114.95 126.614 122.39 112.16 129.491 114.028C136.592 115.896 132.77 135.021 127.152 148.447C122.149 160.404 97.469 172.33 93.832 181.943C94.26 201.417 94.643 226.088 94.914 249.058C96.86 237.193 95.522 236.197 103.495 218.032C108.235 207.233 127.668 193.915 129.986 201.335C132.26 208.617 128.781 222.778 121.445 232.6C115.527 240.523 102.396 240.514 99.357 245.43C98.648 246.577 96.304 250.974 94.965 253.502C95.282 281.545 95.424 306.299 95.267 314.739L93.993 314.824C94.054 312.645 93.9 298.379 93.65 279.501C90.462 269.456 68.996 263.592 62.365 253.146C55.428 242.215 50.441 229.458 53.417 220.915Z" fill="#E6E6E6"/>
<path d="M73.601 327.446H114.801C117.052 327.446 118.992 325.86 119.439 323.654L122.364 309.235H66.038L68.963 323.654C69.41 325.861 71.35 327.446 73.601 327.446Z" fill="#F0F0F0"/>
<path d="M64.86 314.825H123.542C124.948 314.825 126.13 313.769 126.287 312.371L127.487 301.711C127.671 300.073 126.39 298.639 124.742 298.639H63.66C62.012 298.639 60.73 300.073 60.915 301.711L62.115 312.371C62.272 313.769 63.454 314.825 64.86 314.825Z" fill="#F0F0F0"/>
<path d="M177.84 262.667H142.633V327.447H177.84V262.667Z" fill="#E0E0E0"/>
<path d="M267.579 327.446H149.685L137.301 239.549H255.195L267.579 327.446Z" fill="#E6E6E6"/>
<path d="M284.778 327.446H154.37L141.986 239.549H272.394L284.778 327.446Z" fill="#F0F0F0"/>
<path d="M167.135 313.706L156.703 253.289H259.629L270.061 313.706H167.135Z" fill="white"/>
<path d="M211.36 313.706L176.375 253.289H187.351L222.336 313.706H211.36Z" fill="#FAFAFA"/>
<path d="M226.988 313.706L192.003 253.289H210.719L245.704 313.706H226.988Z" fill="#FAFAFA"/>
<path d="M77.266 166.578C77.046 166.578 76.861 166.41 76.842 166.187L74.62 139.485C74.6 139.251 74.774 139.046 75.009 139.026C75.229 139.009 75.448 139.18 75.468 139.415L77.69 166.117C77.71 166.351 77.536 166.556 77.301 166.576C77.289 166.577 77.278 166.578 77.266 166.578Z" fill="#EF3A4C"/>
<path d="M78.585 182.438C78.365 182.438 78.18 182.27 78.161 182.047L77.488 173.964C77.468 173.73 77.642 173.525 77.877 173.505C78.102 173.476 78.317 173.658 78.336 173.894L79.009 181.977C79.029 182.211 78.855 182.416 78.62 182.436C78.609 182.437 78.597 182.438 78.585 182.438Z" fill="#EF3A4C"/>
<path d="M303.555 258.419H97.081C91.813 258.419 87.144 254.109 86.705 248.84L75.077 109.067C74.639 103.799 78.59 99.488 83.859 99.488H290.333C295.601 99.488 300.27 103.798 300.709 109.067L312.338 248.84C312.776 254.108 308.824 258.419 303.555 258.419Z" fill="white"/>
<path d="M303.555 258.818H97.081C91.597 258.818 86.764 254.357 86.308 248.874L74.68 109.101C74.457 106.434 75.298 103.919 77.045 102.02C78.784 100.13 81.204 99.089 83.859 99.089H290.334C295.817 99.089 300.65 103.551 301.106 109.034L312.735 248.806C312.958 251.473 312.117 253.987 310.37 255.885C308.63 257.776 306.21 258.818 303.555 258.818ZM83.859 99.888C81.43 99.888 79.219 100.837 77.633 102.561C76.038 104.293 75.272 106.592 75.475 109.035L87.103 248.807C87.526 253.887 92.002 258.019 97.082 258.019H303.556C305.986 258.019 308.197 257.07 309.784 255.346C311.378 253.613 312.144 251.315 311.941 248.873L300.312 109.101C299.889 104.021 295.414 99.888 290.335 99.888H83.859Z" fill="#EF3A4C"/>
<path d="M290.333 99.489H83.859C78.591 99.489 74.639 103.799 75.077 109.068H300.708C300.27 103.799 295.601 99.489 290.333 99.489Z" fill="#EF3A4C"/>
<path d="M88.692 104.278C88.787 105.419 87.939 106.344 86.798 106.344C85.657 106.344 84.655 105.419 84.56 104.278C84.465 103.137 85.313 102.212 86.454 102.212C87.595 102.212 88.597 103.137 88.692 104.278Z" fill="white"/>
<path d="M97.092 104.278C97.187 105.419 96.339 106.344 95.198 106.344C94.057 106.344 93.056 105.419 92.961 104.278C92.866 103.137 93.714 102.212 94.855 102.212C95.996 102.212 96.997 103.137 97.092 104.278Z" fill="white"/>
<path d="M105.492 104.278C105.587 105.419 104.739 106.344 103.598 106.344C102.457 106.344 101.455 105.419 101.361 104.278C101.266 103.137 102.114 102.212 103.255 102.212C104.396 102.212 105.397 103.137 105.492 104.278Z" fill="white"/>
<path d="M285.637 240.102H111.952C107.764 240.102 104.053 236.676 103.704 232.488L95.593 134.999C95.245 130.811 98.386 127.385 102.574 127.385H276.258C280.446 127.385 284.157 130.811 284.506 134.999L292.617 232.488C292.966 236.676 289.825 240.102 285.637 240.102Z" fill="#F0F0F0"/>
<path opacity="0.1" d="M231.923 144.455L178.115 209.238C170.734 218.125 175.41 231.672 186.701 234.114L273.974 252.989C286.026 255.596 296.097 243.679 291.517 232.23L258.052 148.572C253.719 137.739 239.378 135.48 231.923 144.455Z" fill="#263238"/>
<path opacity="0.1" d="M112.161 153.538L93.42 204.004C90.919 210.738 96.334 217.766 103.483 217.065L158.212 211.698C165.886 210.945 169.672 201.986 164.863 195.958L128.876 150.858C124.158 144.947 114.794 146.448 112.161 153.538Z" fill="#263238"/>
<path d="M250.484 128.144L200.183 201.181C193.331 211.13 199.401 224.806 211.375 226.399L303.84 238.705C316.674 240.413 326.217 227.105 320.482 215.497L278.318 130.154C272.848 119.082 257.49 117.972 250.484 128.144Z" fill="#EF3A4C"/>
<path d="M213.57 219.852C210.207 219.405 207.284 217.284 205.751 214.181C204.218 211.077 204.394 207.639 206.223 204.982L256.651 131.761C258.48 129.106 261.58 127.787 264.942 128.234C268.305 128.682 271.228 130.802 272.761 133.905L315.031 219.463C316.565 222.567 316.388 226.005 314.558 228.662C312.729 231.317 309.629 232.636 306.267 232.189L213.57 219.852Z" fill="white"/>
<path d="M260.648 154.117L266.537 154.901C270.324 155.405 273.239 158.85 273.046 162.595L272.651 170.277C272.637 170.559 272.604 170.838 272.555 171.112L268.365 194.262C267.761 197.598 264.713 199.756 261.255 199.296C257.789 198.835 255 195.889 254.754 192.431L253.055 168.507C253.035 168.23 253.033 167.953 253.047 167.678L253.442 159.987C253.635 156.241 256.861 153.613 260.648 154.117ZM260.178 205.677L261.784 205.891C265.172 206.342 267.778 209.423 267.606 212.773C267.434 216.123 264.548 218.473 261.16 218.023L259.554 217.809C256.166 217.358 253.56 214.277 253.732 210.927C253.905 207.577 256.791 205.226 260.178 205.677Z" fill="#EF3A4C"/>
<path d="M131.505 139.308L117.694 191.682C115.865 198.617 121.918 205.077 128.957 203.703L182.529 193.25C190.057 191.781 192.999 182.582 187.721 177.017L147.961 135.096C142.719 129.57 133.447 131.943 131.505 139.308Z" fill="#EF3A4C"/>
<path d="M128.855 199.461C126.907 199.841 124.88 199.158 123.435 197.634C121.989 196.109 121.425 194.062 121.928 192.157L135.774 139.651C136.276 137.747 137.739 136.383 139.688 136.003C141.636 135.623 143.663 136.306 145.108 137.83L184.969 179.857C186.415 181.382 186.979 183.429 186.476 185.334C185.974 187.238 184.511 188.602 182.563 188.982L128.855 199.461Z" fill="white"/>
<path d="M142.285 151.978L145.697 151.312C147.891 150.884 150.168 152.345 150.781 154.574L152.04 159.147C152.086 159.315 152.122 159.484 152.147 159.654L154.278 174.01C154.585 176.079 153.312 177.924 151.309 178.315C149.301 178.707 147.19 177.514 146.389 175.537L140.847 161.852C140.783 161.693 140.728 161.532 140.683 161.368L139.423 156.789C138.81 154.561 140.091 152.406 142.285 151.978ZM151.94 182.26L152.871 182.078C154.834 181.695 156.87 183.002 157.419 184.996C157.968 186.991 156.822 188.918 154.859 189.301L153.929 189.483C151.966 189.866 149.93 188.559 149.381 186.565C148.831 184.57 149.977 182.643 151.94 182.26Z" fill="#EF3A4C"/>
<path d="M388.363 151.083L380.602 153.604L386.845 160.991C386.845 160.991 389.785 158.487 391.389 155.679C392.059 154.506 391.672 153.013 390.506 152.333L388.363 151.083Z" fill="#7F3E3B"/>
<path d="M377.03 159.666L381.684 165.319L386.845 160.991L380.602 153.604L377.03 159.666Z" fill="#7F3E3B"/>
<path d="M390.866 90.726C392.763 95.924 394.502 101.123 396.149 106.396C397.775 111.681 399.325 116.957 400.646 122.502L401.119 124.628L401.339 125.739L401.448 126.294L401.475 126.434L401.506 126.646L401.565 127.071C401.844 129.335 401.607 131.115 401.294 132.765C400.641 136.032 399.58 138.803 398.412 141.493C396.035 146.835 393.185 151.636 389.849 156.29L384.663 153.422C386.5 148.439 388.314 143.307 389.674 138.364C390.328 135.902 390.89 133.418 391.057 131.269C391.132 130.218 391.08 129.235 390.936 128.791L390.506 127.227L389.949 125.381C388.38 120.373 386.59 115.225 384.819 110.11C383.058 104.986 381.281 99.823 379.576 94.689L390.866 90.726Z" fill="#7F3E3B"/>
<path d="M347.677 59.791C347.809 60.414 347.589 61.002 347.186 61.104C346.782 61.206 346.348 60.783 346.216 60.16C346.084 59.537 346.304 58.949 346.708 58.847C347.112 58.745 347.545 59.167 347.677 59.791Z" fill="#263238"/>
<path d="M347.646 60.9869C347.646 60.9869 347.004 64.9369 345.827 67.0619C347.137 67.8149 348.894 66.8759 348.894 66.8759L347.646 60.9869Z" fill="#630F0F"/>
<path d="M346.027 56.007C345.909 56.007 345.793 55.951 345.72 55.848C345.602 55.679 345.643 55.446 345.812 55.327C345.873 55.285 347.315 54.298 349.198 55.073C349.389 55.152 349.48 55.37 349.402 55.561C349.323 55.752 349.105 55.844 348.914 55.764C347.405 55.142 346.253 55.932 346.242 55.94C346.176 55.985 346.101 56.007 346.027 56.007Z" fill="#263238"/>
<path d="M369.112 61.772C369.809 69.031 368.78 76.06 370.405 82.371C370.405 82.371 368.6 88.228 357.871 88.228C346.073 88.228 352.459 82.371 352.459 82.371C358.958 80.833 358.976 76.056 358.027 71.569L369.112 61.772Z" fill="#7F3E3B"/>
<path d="M372.691 84.3819C373.608 82.5279 374.217 79.9029 372.316 79.2379C370.225 78.5069 359.06 78.2639 355.008 79.6359C350.956 81.0089 351.945 84.7689 351.945 84.7689L372.691 84.3819Z" fill="#263238"/>
<path d="M396.799 347.741C397.575 347.557 398.374 347.198 398.924 346.92C398.997 346.883 399.041 346.805 399.035 346.723C399.029 346.641 398.975 346.57 398.897 346.544C398.546 346.425 395.445 345.402 394.63 346.099C394.504 346.207 394.365 346.406 394.422 346.742C394.499 347.193 394.721 347.514 395.082 347.695C395.537 347.924 396.16 347.892 396.799 347.741ZM398.281 346.777C396.924 347.4 395.815 347.607 395.265 347.33C395.024 347.209 394.88 346.993 394.825 346.673C394.798 346.516 394.849 346.45 394.895 346.41C395.319 346.048 397.031 346.401 398.281 346.777Z" fill="#407BFF"/>
<path d="M398.879 346.937C398.917 346.928 398.952 346.908 398.98 346.879C399.032 346.825 399.05 346.747 399.027 346.676C398.995 346.575 398.221 344.201 397.058 343.635C396.755 343.488 396.45 343.469 396.151 343.58C395.69 343.751 395.634 344.073 395.642 344.251C395.686 345.229 397.8 346.67 398.78 346.936C398.812 346.944 398.846 346.944 398.879 346.937ZM396.38 343.935C396.544 343.896 396.707 343.918 396.878 344.001C397.624 344.364 398.226 345.712 398.491 346.396C397.473 345.945 396.075 344.809 396.049 344.231C396.047 344.178 396.041 344.055 396.292 343.962C396.321 343.951 396.351 343.942 396.38 343.935Z" fill="#407BFF"/>
<path d="M342.175 353.843C342.973 353.843 343.833 353.678 344.432 353.533C344.512 353.514 344.573 353.448 344.586 353.367C344.599 353.286 344.562 353.205 344.493 353.161C344.179 352.964 341.397 351.256 340.443 351.746C340.295 351.822 340.114 351.984 340.093 352.324C340.064 352.781 340.206 353.144 340.515 353.404C340.905 353.731 341.519 353.843 342.175 353.843ZM343.84 353.246C342.376 353.54 341.25 353.486 340.778 353.09C340.571 352.916 340.48 352.674 340.501 352.349C340.511 352.19 340.575 352.137 340.63 352.109C341.125 351.855 342.709 352.592 343.84 353.246Z" fill="#407BFF"/>
<path d="M344.384 353.539C344.423 353.539 344.462 353.528 344.495 353.506C344.558 353.465 344.593 353.393 344.587 353.319C344.579 353.213 344.373 350.725 343.371 349.906C343.11 349.693 342.817 349.604 342.501 349.643C342.013 349.703 341.884 350.004 341.851 350.178C341.669 351.139 343.394 353.029 344.286 353.513C344.317 353.531 344.351 353.539 344.384 353.539ZM342.643 350.043C342.811 350.043 342.965 350.102 343.112 350.222C343.754 350.747 344.03 352.197 344.13 352.924C343.243 352.25 342.144 350.823 342.251 350.255C342.261 350.203 342.284 350.082 342.549 350.049C342.582 350.045 342.613 350.043 342.643 350.043Z" fill="#407BFF"/>
<path d="M353.667 353.227H345.774L345.694 334.948H353.587L353.667 353.227Z" fill="#7F3E3B"/>
<path d="M408.663 346.464L401.064 347.857L395.613 329.87L403.212 328.477L408.663 346.464Z" fill="#7F3E3B"/>
<path d="M399.618 345.835L408.247 343.794C408.561 343.72 408.876 343.876 409.005 344.169L411.873 350.7C412.17 351.378 411.746 352.185 411.019 352.344C407.996 353.004 406.497 353.172 402.703 354.069C400.368 354.621 395.606 356.003 392.382 356.766C389.229 357.512 388.106 354.411 389.369 353.807C395.031 351.101 396.907 348.772 398.465 346.605C398.745 346.215 399.159 345.943 399.618 345.835Z" fill="#263238"/>
<path d="M345.862 352.313H354.482C354.805 352.313 355.075 352.537 355.133 352.852L356.421 359.868C356.554 360.595 355.976 361.285 355.231 361.272C352.124 361.219 347.638 361.037 343.729 361.037C339.159 361.037 337.531 361.286 332.172 361.286C328.932 361.286 328.159 358.01 329.527 357.713C335.754 356.362 338.473 356.217 343.936 352.927C344.53 352.57 345.18 352.313 345.862 352.313Z" fill="#263238"/>
<path d="M388 84.409C395.366 89.593 397.585 102.954 397.585 102.954L380.889 111.419C380.889 111.419 376.649 103.201 374.792 94.849C373.034 86.945 382.764 80.724 388 84.409Z" fill="#FFD4E0"/>
<path opacity="0.2" d="M379.65 92.9299L386.229 108.692L380.893 111.421C380.893 111.421 378.565 106.889 376.573 101.096L379.65 92.9299Z" fill="black"/>
<path d="M338.89 119.081C338.947 127.891 339.48 138.85 340.793 152.452H383.018C383.535 146.251 380.945 117.015 387.23 87.7449C387.697 85.5679 386.241 83.4479 384.041 83.1059C381.35 82.6879 377.67 82.2079 374.069 82.0339C368.685 81.7759 360.881 81.6039 356.126 82.0339C353.54 82.2689 351.009 82.6819 348.927 83.0869C345.324 83.7879 342.459 86.4789 341.506 90.0229C340.595 93.4109 339.664 98.6189 339.195 106.477C338.979 110.099 338.861 114.267 338.89 119.081Z" fill="#FFD4E0"/>
<path opacity="0.2" d="M352.214 102.508C349.424 104.558 344.084 105.498 339.224 105.918C339.304 104.628 339.404 103.408 339.514 102.258C340.823 101.568 342.084 100.938 343.274 100.358L352.214 102.508Z" fill="black"/>
<g opacity="0.2">
<path d="M345.695 334.953L345.735 345.111H353.632L353.592 334.953H345.695Z" fill="black"/>
<path d="M403.215 328.482L395.613 329.875L398.426 339.146L406.029 337.752L403.215 328.482Z" fill="black"/>
</g>
<path d="M367.986 53.2699C369.142 61.0419 370.209 65.5179 367.213 70.4139C362.706 77.7779 352.606 76.6359 349.178 69.4519C346.093 62.9859 344.72 51.3619 351.495 46.4409C358.169 41.5929 366.829 45.4979 367.986 53.2699Z" fill="#7F3E3B"/>
<path d="M351.838 58.944C348.913 57.659 349.191 53.0479 350.08 51.1039C346.691 52.2709 341.791 52.9369 340.908 49.4929C340.025 46.0489 343.025 44.9379 341.191 41.9929C339.358 39.0489 345.191 35.8259 347.913 39.9379C350.635 44.0499 357.349 42.2419 361.691 38.2709C364.849 35.3819 369.469 39.1039 367.635 42.8819C367.635 42.8819 377.135 42.2709 375.246 48.7149C373.357 55.1589 370.69 55.392 371.301 59.975C371.715 63.078 372.079 69.381 368.357 70.27C363.861 71.344 352.635 67.36 351.838 58.944Z" fill="#263238"/>
<path opacity="0.2" d="M351.784 67.358C350.924 67.978 350.034 68.638 349.124 69.338C349.144 69.378 349.154 69.408 349.174 69.448C350.114 71.418 351.564 72.938 353.264 73.958C353.829 73.409 354.145 71.562 355.211 71.59C358.378 71.673 364.512 70.349 365.527 66.772L351.784 67.358Z" fill="black"/>
<path d="M354.246 58.8339C354.467 60.8269 354.097 62.6939 353.495 63.9099C352.589 65.7389 351.173 64.5729 350.618 62.3229C350.119 60.2969 349.988 56.9039 351.286 55.9069C352.563 54.9229 353.993 56.5549 354.246 58.8339Z" fill="#7F3E3B"/>
<path d="M355.771 152.452C355.771 152.452 362.4 212.772 366.445 235.371C370.875 260.118 393.815 337.796 393.815 337.796L407.955 334.785C407.955 334.785 392.165 262.116 390.038 237.615C387.73 211.023 383.013 152.453 383.013 152.453L355.771 152.452Z" fill="#223749"/>
<path opacity="0.3" d="M355.771 152.452C355.771 152.452 362.4 212.772 366.445 235.371C370.875 260.118 393.815 337.796 393.815 337.796L407.955 334.785C407.955 334.785 392.165 262.116 390.038 237.615C387.844 212.335 387.84 212.388 383.013 152.453L355.771 152.452Z" fill="#223749"/>
<path d="M390.648 333.024C390.588 333.037 393.054 338.187 393.054 338.187L408.963 334.799L407.826 329.976L390.648 333.024Z" fill="#263238"/>
<path opacity="0.2" d="M360.602 173.944C370.881 175.975 368.294 214.6 366.28 234.466C363.835 220.423 360.506 193.402 358.259 174.223C358.961 173.88 359.739 173.772 360.602 173.944Z" fill="black"/>
<path d="M340.795 152.452C340.795 152.452 337.43 211.467 337.359 235.537C337.285 260.573 342.865 342.55 342.865 342.55H356.236C356.236 342.55 359.835 262.036 361.38 237.448C363.064 210.642 368.547 152.452 368.547 152.452H340.795Z" fill="#223749"/>
<path opacity="0.3" d="M340.795 152.452C340.795 152.452 337.43 211.467 337.359 235.537C337.285 260.573 342.865 342.55 342.865 342.55H356.236C356.236 342.55 359.835 262.036 361.38 237.448C363.064 210.642 368.547 152.452 368.547 152.452H340.795Z" fill="#223749"/>
<path d="M340.497 337.224C340.435 337.224 341.037 342.775 341.037 342.775H357.302L357.933 337.821L340.497 337.224Z" fill="#263238"/>
<path d="M357.519 96.787C355.923 96.943 354.568 97.024 353.104 97.067C351.667 97.114 350.233 97.133 348.796 97.128C345.924 97.096 343.041 96.951 340.144 96.626C337.246 96.315 334.332 95.846 331.4 95.125C328.467 94.42 325.513 93.438 322.578 91.994L322.245 91.83C319.66 90.558 318.595 87.431 319.867 84.846C320.005 84.565 320.184 84.279 320.363 84.035C321.729 82.199 323.054 80.919 324.409 79.708C325.759 78.513 327.11 77.438 328.471 76.416C331.187 74.365 333.969 72.554 336.76 70.794C339.566 69.058 342.398 67.41 345.269 65.842C348.163 64.298 351.026 62.781 354.028 61.387C355.52 60.694 357.291 61.342 357.984 62.834C358.583 64.124 358.18 65.623 357.095 66.453L357.061 66.478C354.546 68.404 351.959 70.319 349.451 72.279C346.924 74.221 344.41 76.164 341.956 78.145C339.492 80.106 337.094 82.128 334.829 84.159C333.697 85.175 332.614 86.211 331.64 87.244C330.68 88.265 329.768 89.324 329.282 90.127L327.066 82.168C329.102 82.96 331.4 83.528 333.789 83.96C336.185 84.375 338.675 84.646 341.2 84.822C343.727 84.982 346.291 85.066 348.863 85.067C350.149 85.075 351.438 85.061 352.723 85.023C353.981 84.976 355.346 84.931 356.464 84.869L356.601 84.861C359.899 84.676 362.723 87.199 362.909 90.497C363.091 93.71 360.69 96.473 357.519 96.787Z" fill="#7F3E3B"/>
<path d="M363.118 59.7699L358.096 60.8789C358.096 60.8789 351.407 60.0479 349.876 65.0899L353.839 68.4729L359.957 69.4399C360.927 69.5929 361.921 69.4319 362.793 68.9799L364.355 68.1699C365.073 67.7979 365.552 67.0859 365.627 66.2809L365.997 62.3119C366.146 60.7079 364.691 59.4229 363.118 59.7699Z" fill="#7F3E3B"/>
<path d="M353.358 102.631C344.947 104.964 335.358 102.048 335.358 102.048L338.886 83.2149C338.886 83.2149 347.242 82.4829 352.459 82.3719C365.888 82.0879 368.521 98.4249 353.358 102.631Z" fill="#FFD4E0"/>
</svg>
