<svg width="91" height="28" viewBox="0 0 91 28" fill="none" xmlns="http://www.w3.org/2000/svg">
<path d="M28.6298 15.6319C27.8855 16.548 26.5685 17.5214 24.9652 17.5214C23.9918 17.5214 23.0184 17.0634 22.4458 16.3762C21.9877 15.8036 21.7014 15.1165 21.7014 13.7423V6.64209H19.0675V13.3415C19.0675 15.5173 19.4683 16.8343 20.2699 17.8077C21.3579 19.182 23.0757 19.9836 24.908 19.9836C26.7403 19.9836 28.1718 19.0674 28.7444 18.4948V19.6973H31.3211V6.64209H28.6298V15.6319Z" fill="white"/>
<path d="M39.91 6.35577C36.1881 6.35577 33.5542 9.27602 33.5542 13.1697C33.5542 17.0633 36.5317 19.9836 40.3108 19.9836C43.002 19.9836 44.8343 18.7811 45.8077 17.5214L44.09 15.8609C43.3456 16.7198 42.2576 17.6359 40.3108 17.6359C38.0204 17.6359 36.2454 15.8609 36.0736 13.685H46.1513C46.1513 13.456 46.1513 13.2269 46.1513 13.1124C46.2086 9.27602 43.5746 6.35577 39.91 6.35577ZM36.3599 11.5091C36.818 9.79136 38.364 8.64616 40.0245 8.64616C41.5705 8.64616 43.0593 9.79136 43.4601 11.5091H36.3599Z" fill="white"/>
<path d="M73.3497 7.84453C72.1472 6.81385 70.7157 6.35577 69.2842 6.35577C68.0818 6.35577 66.9939 6.64207 66.0777 7.21467C64.0736 8.35986 62.6994 10.593 62.6994 13.1697C62.6994 15.7464 64.0736 17.9795 66.0204 19.1247C66.9366 19.64 68.139 19.9836 69.2842 19.9836C70.8302 19.9836 72.2617 19.4682 73.2924 18.4948V19.6973H75.8691V6.64207H73.2924V7.84453H73.3497ZM73.2924 15.6318C72.3763 16.8343 71.0593 17.5214 69.6851 17.5214C67.1656 17.5214 65.3333 15.5173 65.3333 13.2269C65.3333 10.9366 66.9939 8.93246 69.5133 8.93246C71.1165 8.93246 72.4335 9.7341 73.2352 10.822V15.6318H73.2924Z" fill="white"/>
<path d="M9.84867 7.15746C8.93251 6.64213 7.84458 6.29857 6.64213 6.29857C5.21063 6.29857 3.77914 6.75665 2.63395 7.73006V0L0 0.515337V19.6973H2.57669V18.4949C3.60736 19.4683 5.03885 19.9836 6.58487 19.9836C7.73006 19.9836 8.98977 19.6401 9.84867 19.1247C11.8528 17.9796 13.1697 15.8037 13.1697 13.1697C13.1697 10.5358 11.8528 8.35992 9.84867 7.15746ZM6.24131 17.4642C4.92433 17.4642 3.5501 16.7771 2.63395 15.5746V10.6503C3.43558 9.61963 4.75256 8.76074 6.35583 8.76074C8.87526 8.76074 10.5358 10.7648 10.5358 13.0552C10.593 15.5174 8.76074 17.4642 6.24131 17.4642Z" fill="white"/>
<path d="M14.544 19.8118H17.2352V0.171753L14.544 0.68709V19.8118Z" fill="white"/>
<path d="M57.6033 7.15745C56.6871 6.64212 55.5992 6.29856 54.3967 6.29856C52.9652 6.29856 51.5337 6.75664 50.3886 7.73005V0.057251L47.7546 0.572588V19.6973H50.3313V18.4949C51.362 19.4683 52.7935 19.9836 54.3395 19.9836C55.4847 19.9836 56.7444 19.6401 57.6033 19.1247C59.6074 17.9795 60.9243 15.8037 60.9243 13.1697C60.9243 10.5358 59.5501 8.35991 57.6033 7.15745ZM53.9959 17.4642C52.6789 17.4642 51.3047 16.7771 50.3886 15.5746V10.6503C51.1902 9.61962 52.5072 8.76073 54.1104 8.76073C56.6299 8.76073 58.2904 10.7648 58.2904 13.0552C58.3477 15.5174 56.5153 17.4642 53.9959 17.4642Z" fill="white"/>
<path d="M90.6421 17.0061C89.5542 18.8384 87.2066 20.0981 84.7444 20.0981C80.679 20.0981 77.7014 17.1206 77.7014 13.2269C77.7014 9.33328 80.6217 6.35577 84.5726 6.35577C86.863 6.35577 88.9816 7.50097 90.1841 9.21876L88.2372 10.8793C87.4929 9.84862 86.2904 8.8752 84.5726 8.8752C82.1677 8.8752 80.3354 10.7075 80.3354 13.2269C80.3354 15.8036 82.1677 17.5787 84.7444 17.5787C86.4622 17.5787 87.7219 16.6625 88.5808 15.5173L90.6421 17.0061Z" fill="#E33171"/>
<path d="M3.20653 24.5644H3.95091V26.2249C3.72187 26.3967 3.49283 26.5112 3.20653 26.6257C2.92024 26.7403 2.63394 26.7403 2.29038 26.7403C1.88956 26.7403 1.48874 26.6257 1.14519 26.454C0.801627 26.2822 0.515329 25.9959 0.34355 25.7096C0.17177 25.366 0.057251 25.0225 0.057251 24.6217C0.057251 24.2208 0.17177 23.82 0.34355 23.5337C0.515329 23.2474 0.801627 22.9611 1.14519 22.7894C1.48874 22.6176 1.88956 22.5031 2.29038 22.5031C2.63394 22.5031 2.9775 22.5603 3.26379 22.6748C3.55009 22.7893 3.83639 22.9611 4.00817 23.1329L3.49283 23.591C3.14928 23.2474 2.80572 23.1329 2.34764 23.1329C2.06134 23.1329 1.77504 23.1902 1.546 23.3047C1.31696 23.4192 1.14519 23.591 1.03067 23.82C0.916147 24.0491 0.858887 24.2781 0.858887 24.5644C0.858887 24.8507 0.916147 25.0797 1.03067 25.3088C1.14519 25.5378 1.31696 25.7096 1.546 25.8241C1.77504 25.9386 2.06134 25.9959 2.34764 25.9959C2.6912 25.9959 2.9775 25.9386 3.20653 25.7669V24.5644Z" fill="#E33171"/>
<path d="M4.92432 22.274H5.66869V26.7403H4.92432V22.274Z" fill="#E33171"/>
<path d="M7.21467 26.5685C6.92837 26.454 6.75659 26.225 6.58481 25.9959C6.41303 25.7669 6.35577 25.4806 6.35577 25.137C6.35577 24.7935 6.41303 24.5644 6.58481 24.2781C6.75659 23.9918 6.92837 23.8201 7.21467 23.7055C7.50097 23.591 7.78727 23.4765 8.07357 23.4765C8.41712 23.4765 8.70342 23.5338 8.93246 23.7055C9.21876 23.8201 9.39054 24.0491 9.56232 24.2781C9.7341 24.5072 9.79136 24.7935 9.79136 25.137C9.79136 25.4806 9.7341 25.7096 9.56232 25.9959C9.39054 26.225 9.21876 26.454 8.93246 26.5685C8.64616 26.683 8.35986 26.7976 8.07357 26.7976C7.78727 26.7976 7.50097 26.7403 7.21467 26.5685ZM8.76068 25.8814C8.93246 25.7096 9.04698 25.4806 9.04698 25.137C9.04698 24.8507 8.93246 24.6217 8.76068 24.3927C8.5889 24.1636 8.35986 24.1064 8.07357 24.1064C7.78727 24.1064 7.55823 24.2209 7.38645 24.3927C7.21467 24.5644 7.10015 24.7935 7.10015 25.137C7.10015 25.4233 7.21467 25.6524 7.38645 25.8814C7.55823 26.0532 7.78727 26.1677 8.07357 26.1677C8.35986 26.1677 8.5889 26.0532 8.76068 25.8814Z" fill="#E33171"/>
<path d="M13.1697 23.7055C13.3988 23.8201 13.6278 24.0491 13.7423 24.2781C13.8568 24.5072 13.9713 24.7935 13.9713 25.137C13.9713 25.4806 13.9141 25.7669 13.7423 25.9959C13.6278 26.225 13.3988 26.454 13.1697 26.5685C12.9407 26.683 12.6544 26.7976 12.3108 26.7976C12.0818 26.7976 11.91 26.7403 11.681 26.683C11.4519 26.6258 11.3374 26.5113 11.2229 26.3395V26.7403H10.5358V22.274H11.2801V23.9346C11.3947 23.8201 11.5664 23.7055 11.7382 23.591C11.91 23.5338 12.0818 23.4765 12.3108 23.4765C12.5971 23.4765 12.8834 23.591 13.1697 23.7055ZM12.8834 25.8814C13.0552 25.7096 13.1697 25.4806 13.1697 25.137C13.1697 24.8507 13.0552 24.6217 12.8834 24.3927C12.7116 24.2209 12.4826 24.1064 12.1963 24.1064C12.0245 24.1064 11.8527 24.1636 11.681 24.2209C11.5092 24.2781 11.3947 24.3927 11.3374 24.5644C11.2801 24.7362 11.2229 24.908 11.2229 25.0798C11.2229 25.2516 11.2801 25.4806 11.3374 25.5951C11.3947 25.7669 11.5092 25.8814 11.681 25.9387C11.8527 25.9959 11.9673 26.0532 12.1963 26.0532C12.4826 26.1677 12.7116 26.0532 12.8834 25.8814Z" fill="#E33171"/>
<path d="M16.8916 23.82C17.1207 24.049 17.2924 24.3926 17.2924 24.8507V26.7403H16.6053V26.3394C16.4908 26.454 16.3763 26.5685 16.2045 26.683C16.0327 26.7975 15.8037 26.7975 15.5746 26.7975C15.3456 26.7975 15.1166 26.7403 14.9448 26.683C14.773 26.6257 14.6012 26.5112 14.544 26.3394C14.4867 26.1677 14.3722 26.0531 14.3722 25.8241C14.3722 25.5378 14.4867 25.3088 14.7158 25.137C14.9448 24.9652 15.2883 24.8507 15.7464 24.8507H16.5481V24.7934C16.5481 24.5644 16.4908 24.3926 16.319 24.2781C16.1472 24.1636 15.9755 24.1063 15.7464 24.1063C15.5746 24.1063 15.4029 24.1063 15.2311 24.1636C15.0593 24.2208 14.8875 24.2781 14.773 24.3926L14.4867 23.82C14.6585 23.7055 14.8303 23.591 15.1166 23.5337C15.3456 23.4764 15.5746 23.4192 15.8609 23.4192C16.319 23.4764 16.6626 23.591 16.8916 23.82ZM16.2045 26.1104C16.3763 25.9959 16.4335 25.8814 16.4908 25.7668V25.366H15.6892C15.2311 25.366 15.0593 25.4805 15.0593 25.7668C15.0593 25.8814 15.1166 25.9959 15.2311 26.1104C15.3456 26.1677 15.5174 26.2249 15.6892 26.2249C15.9182 26.2249 16.09 26.1677 16.2045 26.1104Z" fill="#E33171"/>
<path d="M18.2658 22.274H19.0102V26.7403H18.2658V22.274Z" fill="#E33171"/>
<path d="M22.5031 26.5112C22.1595 26.3394 21.8732 26.0531 21.7014 25.7668C21.5297 25.4233 21.4151 25.0797 21.4151 24.6789C21.4151 24.2781 21.5297 23.8773 21.7014 23.591C21.8732 23.3047 22.1595 23.0184 22.5031 22.8466C22.8466 22.6748 23.2474 22.5603 23.6483 22.5603C23.9918 22.5603 24.3354 22.6176 24.5644 22.7321C24.7935 22.8466 25.0798 23.0184 25.3088 23.2474L24.7935 23.7055C24.5072 23.3619 24.1063 23.1902 23.6483 23.1902C23.362 23.1902 23.0757 23.2474 22.8466 23.3619C22.6176 23.4765 22.4458 23.6482 22.3313 23.8773C22.2168 24.1063 22.1595 24.3354 22.1595 24.6217C22.1595 24.9079 22.2168 25.137 22.3313 25.366C22.4458 25.5951 22.6176 25.7668 22.8466 25.8814C23.0757 25.9959 23.3047 26.0531 23.6483 26.0531C24.1063 26.0531 24.4499 25.8814 24.7935 25.5378L25.3088 25.9959C25.137 26.2249 24.8507 26.3967 24.5644 26.5112C24.2781 26.6257 23.9346 26.683 23.591 26.683C23.2474 26.7975 22.8466 26.683 22.5031 26.5112Z" fill="#E33171"/>
<path d="M26.454 26.5685C26.1677 26.454 25.9959 26.225 25.8241 25.9959C25.6523 25.7669 25.5951 25.4806 25.5951 25.137C25.5951 24.7935 25.6523 24.5644 25.8241 24.2781C25.9959 23.9918 26.1677 23.8201 26.454 23.7055C26.7403 23.591 27.0266 23.4765 27.3129 23.4765C27.6564 23.4765 27.9427 23.5338 28.1717 23.7055C28.458 23.8201 28.6298 24.0491 28.8016 24.2781C28.9734 24.5072 29.0306 24.7935 29.0306 25.137C29.0306 25.4806 28.9734 25.7096 28.8016 25.9959C28.6298 26.225 28.458 26.454 28.1717 26.5685C27.8855 26.683 27.5992 26.7976 27.3129 26.7976C27.0266 26.7976 26.7403 26.7403 26.454 26.5685ZM28 25.8814C28.1717 25.7096 28.2863 25.4806 28.2863 25.137C28.2863 24.8507 28.1717 24.6217 28 24.3927C27.8282 24.1636 27.5992 24.1064 27.3129 24.1064C27.0266 24.1064 26.7975 24.2209 26.6257 24.3927C26.454 24.5644 26.3394 24.7935 26.3394 25.137C26.3394 25.4233 26.454 25.6524 26.6257 25.8814C26.7975 26.0532 27.0266 26.1677 27.3129 26.1677C27.5992 26.1677 27.8282 26.0532 28 25.8814Z" fill="#E33171"/>
<path d="M32.5808 23.8773C32.8098 24.1064 32.9243 24.4499 32.9243 24.908V26.7403H32.18V25.0225C32.18 24.7362 32.1227 24.5072 32.0082 24.3927C31.8937 24.2781 31.6646 24.1636 31.4356 24.1636C31.1493 24.1636 30.9202 24.2209 30.8057 24.3927C30.634 24.5644 30.5767 24.7935 30.5767 25.137V26.7403H29.7751V23.5338H30.4622V23.9346C30.5767 23.7628 30.7485 23.6483 30.9202 23.591C31.092 23.5338 31.3211 23.4765 31.5501 23.4765C32.0082 23.4765 32.2945 23.591 32.5808 23.8773Z" fill="#E33171"/>
<path d="M36.7035 23.8773C36.9325 24.1064 37.047 24.4499 37.047 24.908V26.7403H36.3026V25.0225C36.3026 24.7362 36.2454 24.5072 36.1309 24.3927C36.0163 24.2781 35.7873 24.1636 35.5583 24.1636C35.272 24.1636 35.0429 24.2209 34.9284 24.3927C34.7566 24.5644 34.6994 24.7935 34.6994 25.137V26.7403H33.955V23.5338H34.6421V23.9346C34.7566 23.7628 34.9284 23.6483 35.1002 23.591C35.272 23.5338 35.501 23.4765 35.73 23.4765C36.1309 23.4765 36.4172 23.591 36.7035 23.8773Z" fill="#E33171"/>
<path d="M41.0552 25.3661H38.5358C38.593 25.5951 38.7075 25.7669 38.8793 25.9387C39.0511 26.0532 39.2801 26.1677 39.5664 26.1677C39.91 26.1677 40.1963 26.0532 40.4253 25.8242L40.8262 26.2822C40.6544 26.454 40.4826 26.5685 40.2536 26.683C40.0245 26.7976 39.7955 26.7976 39.5092 26.7976C39.1656 26.7976 38.8221 26.7403 38.593 26.5685C38.3067 26.454 38.1349 26.225 37.9632 25.9959C37.7914 25.7669 37.7341 25.4806 37.7341 25.137C37.7341 24.8507 37.7914 24.5644 37.9632 24.2781C38.0777 24.0491 38.3067 23.8201 38.5358 23.7055C38.7648 23.591 39.0511 23.4765 39.3947 23.4765C39.681 23.4765 39.9673 23.5338 40.2536 23.7055C40.4826 23.8201 40.7116 24.0491 40.8262 24.2781C40.9407 24.5072 41.0552 24.7935 41.0552 25.137C41.0552 25.1943 41.0552 25.3088 41.0552 25.3661ZM38.8221 24.3354C38.6503 24.4499 38.5358 24.679 38.5358 24.908H40.3681C40.3108 24.679 40.2536 24.5072 40.0818 24.3354C39.91 24.1636 39.7382 24.1064 39.4519 24.1064C39.1656 24.1064 38.9938 24.1636 38.8221 24.3354Z" fill="#E33171"/>
<path d="M42.3721 26.5685C42.0858 26.454 41.9141 26.225 41.7423 25.9959C41.5705 25.7669 41.5132 25.4806 41.5132 25.137C41.5132 24.7935 41.5705 24.5644 41.7423 24.2781C41.9141 24.0491 42.0858 23.8201 42.3721 23.7055C42.6584 23.591 42.9447 23.4765 43.2883 23.4765C43.6319 23.4765 43.8609 23.5338 44.1472 23.6483C44.3762 23.7628 44.548 23.9346 44.6625 24.2209L44.0899 24.5644C43.9754 24.3927 43.8609 24.2781 43.7464 24.2209C43.6319 24.1636 43.4601 24.1064 43.2883 24.1064C43.002 24.1064 42.773 24.2209 42.6012 24.3927C42.4294 24.5644 42.3149 24.7935 42.3149 25.137C42.3149 25.4233 42.4294 25.7096 42.6012 25.8814C42.773 26.0532 43.002 26.1677 43.2883 26.1677C43.4601 26.1677 43.6319 26.1104 43.7464 26.0532C43.8609 25.9959 43.9754 25.8814 44.0899 25.7096L44.6625 26.0532C44.548 26.2822 44.3762 26.454 44.1472 26.6258C43.9182 26.7403 43.6319 26.7976 43.3456 26.7976C42.8875 26.7976 42.6012 26.7403 42.3721 26.5685Z" fill="#E33171"/>
<path d="M47.2392 26.5685C47.1247 26.6258 47.0674 26.683 46.8957 26.7403C46.7239 26.7975 46.6094 26.7975 46.4948 26.7975C46.1513 26.7975 45.865 26.683 45.6932 26.5112C45.5214 26.3395 45.4069 26.0532 45.4069 25.7096V24.1636H44.8916V23.591H45.4069V22.8466H46.1513V23.591H47.0102V24.1636H46.1513V25.7096C46.1513 25.8814 46.2085 25.9959 46.2658 26.0532C46.3231 26.1104 46.4376 26.1677 46.6094 26.1677C46.7811 26.1677 46.8957 26.1104 47.0102 26.0532L47.2392 26.5685Z" fill="#E33171"/>
<path d="M47.8691 22.8466C47.7546 22.7321 47.7546 22.6748 47.7546 22.5031C47.7546 22.3885 47.8118 22.274 47.8691 22.1595C47.9836 22.045 48.0981 22.045 48.2127 22.045C48.3272 22.045 48.4417 22.1022 48.5562 22.1595C48.6707 22.2168 48.6707 22.3313 48.6707 22.4458C48.6707 22.5603 48.6135 22.6748 48.5562 22.7894C48.4417 22.9039 48.3272 22.9039 48.2127 22.9039C48.0981 23.0184 47.9836 22.9611 47.8691 22.8466ZM47.8691 23.5337H48.6135V26.7403H47.8691V23.5337Z" fill="#E33171"/>
<path d="M52.5644 23.5337L51.1902 26.7402H50.3885L49.0143 23.5337H49.8159L50.7893 25.9386L51.82 23.5337H52.5644Z" fill="#E33171"/>
<path d="M53.0797 22.8466C52.9652 22.7321 52.9652 22.6748 52.9652 22.5031C52.9652 22.3885 53.0225 22.274 53.0797 22.1595C53.1942 22.045 53.3088 22.045 53.4233 22.045C53.5378 22.045 53.6523 22.1022 53.7668 22.1595C53.8814 22.2168 53.8814 22.3313 53.8814 22.4458C53.8814 22.5603 53.8241 22.6748 53.7668 22.7894C53.6523 22.9039 53.5378 22.9039 53.4233 22.9039C53.3088 23.0184 53.1942 22.9611 53.0797 22.8466ZM53.0797 23.5337H53.8241V26.7403H53.0797V23.5337Z" fill="#E33171"/>
<path d="M56.7443 26.5685C56.6298 26.6258 56.5726 26.683 56.4008 26.7403C56.229 26.7975 56.1145 26.7975 56 26.7975C55.6564 26.7975 55.3701 26.683 55.1983 26.5112C55.0266 26.3395 54.912 26.0532 54.912 25.7096V24.1636H54.3967V23.591H54.912V22.8466H55.6564V23.591H56.5153V24.1636H55.6564V25.7096C55.6564 25.8814 55.7137 25.9959 55.7709 26.0532C55.8282 26.1104 55.9427 26.1677 56.1145 26.1677C56.2863 26.1677 56.4008 26.1104 56.5153 26.0532L56.7443 26.5685Z" fill="#E33171"/>
<path d="M60.2945 23.5337L58.8057 27.0265C58.6912 27.3701 58.5194 27.5991 58.2904 27.7709C58.1186 27.8854 57.8323 27.9999 57.546 27.9999C57.3742 27.9999 57.2024 27.9999 57.0879 27.9427C56.9161 27.8854 56.8016 27.8282 56.6871 27.7136L56.9734 27.1411C57.0307 27.1983 57.1452 27.2556 57.2024 27.3128C57.317 27.3701 57.3742 27.3701 57.4887 27.3701C57.6033 27.3701 57.7178 27.3128 57.8323 27.2556C57.9468 27.1983 58.0041 27.0838 58.0613 26.912L58.1186 26.7975L56.7444 23.591H57.546L58.5767 25.9386L59.6073 23.591H60.2945V23.5337Z" fill="#E33171"/>
<path d="M62.8711 26.683C62.5848 26.5685 62.3558 26.454 62.1268 26.3395L62.4131 25.7096C62.5848 25.8241 62.8139 25.9386 63.0429 26.0532C63.272 26.1677 63.5583 26.1677 63.7873 26.1677C64.0736 26.1677 64.3599 26.1104 64.4744 25.9959C64.5889 25.8814 64.7035 25.7669 64.7035 25.5951C64.7035 25.4806 64.6462 25.366 64.5889 25.3088C64.5317 25.2515 64.4172 25.1943 64.2454 25.137C64.1309 25.0797 63.9591 25.0225 63.73 24.9652C63.3865 24.908 63.1574 24.7934 62.9284 24.7362C62.7566 24.6789 62.5848 24.5644 62.4131 24.3926C62.2985 24.2208 62.184 23.9918 62.184 23.7628C62.184 23.5337 62.2413 23.3047 62.3558 23.1329C62.4703 22.9611 62.6994 22.7893 62.9284 22.6748C63.1574 22.5603 63.501 22.5031 63.8446 22.5031C64.0736 22.5031 64.3599 22.5603 64.5889 22.6176C64.818 22.6748 65.047 22.7893 65.2188 22.9039L64.9898 23.5337C64.818 23.4192 64.5889 23.3619 64.4172 23.3047C64.2454 23.2474 64.0163 23.2474 63.8446 23.2474C63.5583 23.2474 63.3292 23.3047 63.1574 23.4192C62.9857 23.5337 62.9284 23.6482 62.9284 23.82C62.9284 23.9345 62.9857 24.0491 63.0429 24.1063C63.1574 24.1636 63.2147 24.2208 63.3865 24.2781C63.501 24.3354 63.6728 24.3926 63.9018 24.4499C64.1881 24.5071 64.4744 24.6217 64.6462 24.6789C64.818 24.7362 64.9898 24.8507 65.1615 25.0225C65.2761 25.1943 65.3906 25.4233 65.3906 25.6523C65.3906 25.8814 65.3333 26.1104 65.2188 26.2822C65.1043 26.454 64.8752 26.6257 64.6462 26.7403C64.4172 26.8548 64.0736 26.912 63.73 26.912C63.4437 26.7975 63.1574 26.7403 62.8711 26.683Z" fill="#E33171"/>
<path d="M66.7648 26.5685C66.4785 26.454 66.3067 26.225 66.135 25.9959C65.9632 25.7669 65.9059 25.4806 65.9059 25.137C65.9059 24.7935 65.9632 24.5644 66.135 24.2781C66.3067 24.0491 66.4785 23.8201 66.7648 23.7055C67.0511 23.591 67.3374 23.4765 67.6237 23.4765C67.9673 23.4765 68.2536 23.5338 68.4826 23.7055C68.7689 23.8201 68.9407 24.0491 69.1125 24.2781C69.2842 24.5072 69.3415 24.7935 69.3415 25.137C69.3415 25.4806 69.2842 25.7096 69.1125 25.9959C68.9407 26.225 68.7689 26.454 68.4826 26.5685C68.1963 26.683 67.91 26.7976 67.6237 26.7976C67.2801 26.7976 66.9938 26.7403 66.7648 26.5685ZM68.3108 25.8814C68.4826 25.7096 68.5971 25.4806 68.5971 25.137C68.5971 24.8507 68.4826 24.6217 68.3108 24.3927C68.139 24.2209 67.91 24.1064 67.6237 24.1064C67.3374 24.1064 67.1084 24.2209 66.9366 24.3927C66.7648 24.5644 66.6503 24.7935 66.6503 25.137C66.6503 25.4233 66.7648 25.6524 66.9366 25.8814C67.1084 26.1104 67.3374 26.1677 67.6237 26.1677C67.91 26.1677 68.139 26.0532 68.3108 25.8814Z" fill="#E33171"/>
<path d="M70.0859 22.274H70.8303V26.7403H70.0859V22.274Z" fill="#E33171"/>
<path d="M74.8957 23.5337V26.7402H74.2086V26.3394C74.094 26.5112 73.9223 26.5685 73.7505 26.683C73.5787 26.7402 73.3497 26.7975 73.1779 26.7975C72.7771 26.7975 72.4335 26.683 72.1472 26.4539C71.9182 26.2249 71.8036 25.8813 71.8036 25.366V23.5337H72.548V25.2515C72.548 25.5378 72.6053 25.7668 72.7198 25.8813C72.8343 25.9959 73.0634 26.1104 73.2924 26.1104C73.5787 26.1104 73.7505 26.0531 73.9223 25.8813C74.094 25.7096 74.1513 25.4805 74.1513 25.137V23.5337H74.8957Z" fill="#E33171"/>
<path d="M77.8159 26.5685C77.7014 26.6258 77.6442 26.683 77.4724 26.7403C77.3006 26.7975 77.1861 26.7975 77.0716 26.7975C76.728 26.7975 76.4417 26.683 76.2699 26.5112C76.0981 26.3395 75.9836 26.0532 75.9836 25.7096V24.1636H75.4683V23.591H75.9836V22.8466H76.728V23.591H77.5869V24.1636H76.728V25.7096C76.728 25.8814 76.7853 25.9959 76.8425 26.0532C76.8998 26.1104 77.0143 26.1677 77.1861 26.1677C77.3579 26.1677 77.4724 26.1104 77.5869 26.0532L77.8159 26.5685Z" fill="#E33171"/>
<path d="M78.503 22.8466C78.3885 22.7321 78.3885 22.6748 78.3885 22.5031C78.3885 22.3885 78.4458 22.274 78.503 22.1595C78.6176 22.045 78.7321 22.045 78.8466 22.045C78.9611 22.045 79.0756 22.1022 79.1902 22.1595C79.3047 22.2168 79.3047 22.3313 79.3047 22.4458C79.3047 22.5603 79.2474 22.6748 79.1902 22.7894C79.1329 22.9039 78.9611 22.9039 78.8466 22.9039C78.6748 23.0184 78.5603 22.9611 78.503 22.8466ZM78.4458 23.5337H79.1902V26.7403H78.4458V23.5337Z" fill="#E33171"/>
<path d="M80.7362 26.5685C80.4499 26.454 80.2781 26.225 80.1063 25.9959C79.9345 25.7669 79.8773 25.4806 79.8773 25.137C79.8773 24.7935 79.9345 24.5644 80.1063 24.2781C80.2781 24.0491 80.4499 23.8201 80.7362 23.7055C81.0225 23.591 81.3088 23.4765 81.5951 23.4765C81.9386 23.4765 82.2249 23.5338 82.454 23.7055C82.7403 23.8201 82.9121 24.0491 83.0838 24.2781C83.2556 24.5072 83.3129 24.7935 83.3129 25.137C83.3129 25.4806 83.2556 25.7096 83.0838 25.9959C82.9121 26.225 82.7403 26.454 82.454 26.5685C82.1677 26.683 81.8814 26.7976 81.5951 26.7976C81.3088 26.7976 81.0225 26.7403 80.7362 26.5685ZM82.2822 25.8814C82.454 25.7096 82.5685 25.4806 82.5685 25.137C82.5685 24.8507 82.454 24.6217 82.2822 24.3927C82.1104 24.2209 81.8814 24.1064 81.5951 24.1064C81.3088 24.1064 81.0797 24.2209 80.908 24.3927C80.7362 24.5644 80.6217 24.7935 80.6217 25.137C80.6217 25.4233 80.7362 25.6524 80.908 25.8814C81.0797 26.1104 81.3088 26.1677 81.5951 26.1677C81.8814 26.1677 82.1104 26.0532 82.2822 25.8814Z" fill="#E33171"/>
<path d="M86.863 23.8773C87.092 24.1064 87.2065 24.4499 87.2065 24.908V26.7403H86.4622V25.0225C86.4622 24.7362 86.4049 24.5072 86.2904 24.3927C86.1759 24.2781 85.9468 24.1636 85.7178 24.1636C85.4315 24.1636 85.2024 24.2209 85.0879 24.3927C84.9161 24.5644 84.8589 24.7935 84.8589 25.137V26.7403H84.1145V23.5338H84.8016V23.9346C84.9161 23.7628 85.0879 23.6483 85.2597 23.591C85.4315 23.5338 85.6605 23.4765 85.8896 23.4765C86.2904 23.4765 86.5767 23.591 86.863 23.8773Z" fill="#E33171"/>
<path d="M88.409 26.683C88.1799 26.6257 87.9509 26.5112 87.8364 26.3967L88.1227 25.8241C88.2944 25.9386 88.4662 25.9959 88.638 26.0531C88.867 26.1104 89.0388 26.1676 89.2106 26.1676C89.6687 26.1676 89.8977 26.0531 89.8977 25.8241C89.8977 25.7096 89.8405 25.6523 89.7259 25.595C89.6114 25.5378 89.4396 25.4805 89.1533 25.4805C88.867 25.4233 88.6953 25.366 88.5235 25.366C88.3517 25.3087 88.2372 25.2515 88.0654 25.0797C87.9509 24.9652 87.8936 24.7934 87.8936 24.5644C87.8936 24.2781 88.0081 23.9918 88.2944 23.82C88.5807 23.6482 88.867 23.5337 89.3251 23.5337C89.5542 23.5337 89.7832 23.5337 90.0122 23.591C90.2413 23.6482 90.4131 23.7055 90.5276 23.82L90.2413 24.3926C89.955 24.2208 89.6687 24.1635 89.3251 24.1635C89.0961 24.1635 88.9243 24.2208 88.8098 24.2781C88.6953 24.3353 88.638 24.4498 88.638 24.5644C88.638 24.6789 88.6953 24.7934 88.8098 24.7934C88.9243 24.8507 89.0961 24.9079 89.3824 24.9079C89.6114 24.9652 89.8405 25.0224 90.0122 25.0224C90.184 25.0797 90.2985 25.137 90.4131 25.3087C90.5276 25.4805 90.5848 25.595 90.5848 25.8241C90.5848 26.1104 90.4703 26.3394 90.184 26.5685C89.8977 26.7402 89.5542 26.8548 89.0961 26.8548C88.9243 26.7975 88.638 26.7402 88.409 26.683Z" fill="#E33171"/>
</svg>
