<svg width="91" height="29" viewBox="0 0 91 29" fill="none" xmlns="http://www.w3.org/2000/svg">
<path d="M28.7429 15.6935C27.9956 16.6133 26.6735 17.5906 25.0639 17.5906C24.0866 17.5906 23.1093 17.1307 22.5345 16.4409C22.0746 15.866 21.7872 15.1762 21.7872 13.7965V6.66827H19.1428V13.3941C19.1428 15.5786 19.5452 16.9007 20.35 17.878C21.4423 19.2577 23.1668 20.0625 25.0064 20.0625C26.8459 20.0625 28.2831 19.1427 28.8579 18.5678V19.775H31.4448V6.66827H28.7429V15.6935Z" fill="#1E1936"/>
<path d="M40.0676 6.38086C36.3311 6.38086 33.6867 9.31263 33.6867 13.2217C33.6867 17.1307 36.676 20.0625 40.47 20.0625C43.1719 20.0625 45.0114 18.8553 45.9887 17.5906L44.2641 15.9235C43.5168 16.7858 42.4245 17.7056 40.47 17.7056C38.1706 17.7056 36.3885 15.9235 36.2161 13.739H46.3336C46.3336 13.5091 46.3336 13.2792 46.3336 13.1642C46.3911 9.31263 43.7467 6.38086 40.0676 6.38086ZM36.5035 11.5546C36.9634 9.83001 38.5155 8.68029 40.1826 8.68029C41.7347 8.68029 43.2293 9.83001 43.6317 11.5546H36.5035Z" fill="#1E1936"/>
<path d="M73.6393 7.87549C72.4321 6.84075 70.995 6.38086 69.5578 6.38086C68.3506 6.38086 67.2584 6.66829 66.3386 7.24315C64.3266 8.39286 62.947 10.6348 62.947 13.2217C62.947 15.8085 64.3266 18.0505 66.2811 19.2002C67.2009 19.7176 68.4081 20.0625 69.5578 20.0625C71.1099 20.0625 72.5471 19.5451 73.5818 18.5678V19.775H76.1687V6.66829H73.5818V7.87549H73.6393ZM73.5818 15.6936C72.6621 16.9008 71.3399 17.5906 69.9602 17.5906C67.4309 17.5906 65.5913 15.5786 65.5913 13.2792C65.5913 10.9797 67.2584 8.96772 69.7878 8.96772C71.3974 8.96772 72.7195 9.77252 73.5243 10.8648V15.6936H73.5818Z" fill="#1E1936"/>
<path d="M9.88756 7.18572C8.96778 6.66835 7.87555 6.32344 6.66835 6.32344C5.23121 6.32344 3.79406 6.78332 2.64435 7.76058V0L0 0.517372V19.7751H2.58686V18.5679C3.6216 19.5452 5.05875 20.0625 6.61087 20.0625C7.76058 20.0625 9.02527 19.7176 9.88756 19.2003C11.8996 18.0505 13.2217 15.8661 13.2217 13.2217C13.2217 10.5774 11.8996 8.39292 9.88756 7.18572ZM6.26595 17.5332C4.94378 17.5332 3.56412 16.8433 2.64435 15.6361V10.6924C3.44915 9.65761 4.77132 8.79532 6.38092 8.79532C8.9103 8.79532 10.5774 10.8073 10.5774 13.1068C10.6349 15.5786 8.79533 17.5332 6.26595 17.5332Z" fill="#1E1936"/>
<path d="M14.6014 19.8901H17.3033V0.172485L14.6014 0.689857V19.8901Z" fill="#1E1936"/>
<path d="M57.8307 7.18567C56.911 6.6683 55.8187 6.32338 54.6115 6.32338C53.1744 6.32338 51.7372 6.78327 50.5875 7.76053V0.0574341L47.9432 0.574806V19.7751H50.53V18.5679C51.5648 19.5451 53.0019 20.0625 54.554 20.0625C55.7038 20.0625 56.9684 19.7176 57.8307 19.2002C59.8427 18.0505 61.1649 15.866 61.1649 13.2217C61.1649 10.5773 59.7852 8.39287 57.8307 7.18567ZM54.2091 17.5331C52.887 17.5331 51.5073 16.8433 50.5875 15.6361V10.6923C51.3923 9.65756 52.7145 8.79527 54.3241 8.79527C56.8535 8.79527 58.5206 10.8073 58.5206 13.1067C58.578 15.5786 56.7385 17.5331 54.2091 17.5331Z" fill="#1E1936"/>
<path d="M91 17.0732C89.9077 18.9128 87.5508 20.1774 85.0789 20.1774C80.9974 20.1774 78.0082 17.1882 78.0082 13.2792C78.0082 9.37012 80.94 6.38086 84.9065 6.38086C87.2059 6.38086 89.3329 7.53058 90.5401 9.25515L88.5856 10.9222C87.8383 9.88749 86.631 8.91023 84.9065 8.91023C82.4921 8.91023 80.6525 10.7498 80.6525 13.2792C80.6525 15.866 82.4921 17.6481 85.0789 17.6481C86.8035 17.6481 88.0682 16.7283 88.9305 15.5786L91 17.0732Z" fill="#E33171"/>
<path d="M3.21915 24.6614H3.96647V26.3285C3.73652 26.501 3.50658 26.6159 3.21915 26.7309C2.93172 26.8459 2.64429 26.8459 2.29938 26.8459C1.89698 26.8459 1.49458 26.7309 1.14966 26.5584C0.804749 26.386 0.51732 26.0986 0.344863 25.8111C0.172406 25.4662 0.0574341 25.1213 0.0574341 24.7189C0.0574341 24.3165 0.172406 23.9141 0.344863 23.6267C0.51732 23.3392 0.804749 23.0518 1.14966 22.8793C1.49458 22.7069 1.89698 22.5919 2.29938 22.5919C2.64429 22.5919 2.98921 22.6494 3.27664 22.7644C3.56407 22.8793 3.8515 23.0518 4.02395 23.2243L3.50658 23.6841C3.16167 23.3392 2.81675 23.2243 2.35687 23.2243C2.06944 23.2243 1.78201 23.2817 1.55206 23.3967C1.32212 23.5117 1.14966 23.6841 1.03469 23.9141C0.919721 24.144 0.862235 24.374 0.862235 24.6614C0.862235 24.9488 0.919721 25.1788 1.03469 25.4087C1.14966 25.6387 1.32212 25.8111 1.55206 25.9261C1.78201 26.0411 2.06944 26.0986 2.35687 26.0986C2.70178 26.0986 2.98921 26.0411 3.21915 25.8686V24.6614Z" fill="#E33171"/>
<path d="M4.94379 22.3619H5.6911V26.8458H4.94379V22.3619Z" fill="#E33171"/>
<path d="M7.24315 26.6734C6.95572 26.5584 6.78326 26.3285 6.6108 26.0985C6.43834 25.8686 6.38086 25.5812 6.38086 25.2362C6.38086 24.8913 6.43834 24.6614 6.6108 24.374C6.78326 24.0865 6.95572 23.9141 7.24315 23.7991C7.53058 23.6841 7.818 23.5692 8.10543 23.5692C8.45035 23.5692 8.73778 23.6266 8.96772 23.7991C9.25515 23.9141 9.42761 24.144 9.60006 24.374C9.77252 24.6039 9.83001 24.8913 9.83001 25.2362C9.83001 25.5812 9.77252 25.8111 9.60006 26.0985C9.42761 26.3285 9.25515 26.5584 8.96772 26.6734C8.68029 26.7884 8.39286 26.9033 8.10543 26.9033C7.818 26.9033 7.53058 26.8458 7.24315 26.6734ZM8.79526 25.9836C8.96772 25.8111 9.08269 25.5812 9.08269 25.2362C9.08269 24.9488 8.96772 24.7189 8.79526 24.4889C8.6228 24.259 8.39286 24.2015 8.10543 24.2015C7.818 24.2015 7.58806 24.3165 7.4156 24.4889C7.24315 24.6614 7.12817 24.8913 7.12817 25.2362C7.12817 25.5237 7.24315 25.7536 7.4156 25.9836C7.58806 26.156 7.818 26.271 8.10543 26.271C8.39286 26.271 8.6228 26.156 8.79526 25.9836Z" fill="#E33171"/>
<path d="M13.2217 23.7991C13.4517 23.9141 13.6816 24.144 13.7966 24.3739C13.9116 24.6039 14.0265 24.8913 14.0265 25.2362C14.0265 25.5811 13.9691 25.8686 13.7966 26.0985C13.6816 26.3285 13.4517 26.5584 13.2217 26.6734C12.9918 26.7883 12.7044 26.9033 12.3595 26.9033C12.1295 26.9033 11.9571 26.8458 11.7271 26.7883C11.4972 26.7309 11.3822 26.6159 11.2672 26.4434V26.8458H10.5774V22.3619H11.3247V24.029C11.4397 23.9141 11.6121 23.7991 11.7846 23.6841C11.9571 23.6266 12.1295 23.5691 12.3595 23.5691C12.6469 23.5691 12.9343 23.6841 13.2217 23.7991ZM12.9343 25.9835C13.1068 25.8111 13.2217 25.5811 13.2217 25.2362C13.2217 24.9488 13.1068 24.7189 12.9343 24.4889C12.7619 24.3165 12.5319 24.2015 12.2445 24.2015C12.072 24.2015 11.8996 24.259 11.7271 24.3165C11.5547 24.3739 11.4397 24.4889 11.3822 24.6614C11.3247 24.8338 11.2672 25.0063 11.2672 25.1787C11.2672 25.3512 11.3247 25.5811 11.3822 25.6961C11.4397 25.8686 11.5547 25.9835 11.7271 26.041C11.8996 26.0985 12.0145 26.156 12.2445 26.156C12.5319 26.271 12.7619 26.156 12.9343 25.9835Z" fill="#E33171"/>
<path d="M16.9583 23.9141C17.1882 24.144 17.3607 24.4889 17.3607 24.9488V26.8458H16.6708V26.4434C16.5559 26.5584 16.4409 26.6734 16.2684 26.7883C16.096 26.9033 15.866 26.9033 15.6361 26.9033C15.4062 26.9033 15.1762 26.8458 15.0038 26.7883C14.8313 26.7309 14.6588 26.6159 14.6014 26.4434C14.5439 26.271 14.4289 26.156 14.4289 25.9261C14.4289 25.6386 14.5439 25.4087 14.7738 25.2362C15.0038 25.0638 15.3487 24.9488 15.8086 24.9488H16.6134V24.8913C16.6134 24.6614 16.5559 24.4889 16.3834 24.3739C16.211 24.259 16.0385 24.2015 15.8086 24.2015C15.6361 24.2015 15.4636 24.2015 15.2912 24.259C15.1187 24.3165 14.9463 24.3739 14.8313 24.4889L14.5439 23.9141C14.7163 23.7991 14.8888 23.6841 15.1762 23.6266C15.4062 23.5691 15.6361 23.5117 15.9235 23.5117C16.3834 23.5691 16.7283 23.6841 16.9583 23.9141ZM16.2684 26.2135C16.4409 26.0985 16.4984 25.9835 16.5559 25.8686V25.4662H15.7511C15.2912 25.4662 15.1187 25.5811 15.1187 25.8686C15.1187 25.9835 15.1762 26.0985 15.2912 26.2135C15.4062 26.271 15.5786 26.3285 15.7511 26.3285C15.981 26.3285 16.1535 26.271 16.2684 26.2135Z" fill="#E33171"/>
<path d="M18.338 22.3619H19.0853V26.8458H18.338V22.3619Z" fill="#E33171"/>
<path d="M22.5919 26.616C22.247 26.4435 21.9596 26.1561 21.7871 25.8687C21.6147 25.5238 21.4997 25.1789 21.4997 24.7764C21.4997 24.374 21.6147 23.9716 21.7871 23.6842C21.9596 23.3968 22.247 23.1094 22.5919 22.9369C22.9368 22.7644 23.3392 22.6495 23.7416 22.6495C24.0866 22.6495 24.4315 22.707 24.6614 22.8219C24.8914 22.9369 25.1788 23.1094 25.4087 23.3393L24.8914 23.7992C24.6039 23.4543 24.2015 23.2818 23.7416 23.2818C23.4542 23.2818 23.1668 23.3393 22.9368 23.4543C22.7069 23.5692 22.5344 23.7417 22.4195 23.9716C22.3045 24.2016 22.247 24.4315 22.247 24.719C22.247 25.0064 22.3045 25.2363 22.4195 25.4663C22.5344 25.6962 22.7069 25.8687 22.9368 25.9837C23.1668 26.0986 23.3967 26.1561 23.7416 26.1561C24.2015 26.1561 24.5464 25.9837 24.8914 25.6387L25.4087 26.0986C25.2363 26.3286 24.9488 26.501 24.6614 26.616C24.374 26.731 24.0291 26.7885 23.6842 26.7885C23.3392 26.9034 22.9368 26.7885 22.5919 26.616Z" fill="#E33171"/>
<path d="M26.5584 26.6734C26.271 26.5584 26.0985 26.3285 25.926 26.0985C25.7536 25.8686 25.6961 25.5812 25.6961 25.2362C25.6961 24.8913 25.7536 24.6614 25.926 24.374C26.0985 24.0865 26.271 23.9141 26.5584 23.7991C26.8458 23.6841 27.1333 23.5692 27.4207 23.5692C27.7656 23.5692 28.053 23.6266 28.283 23.7991C28.5704 23.9141 28.7429 24.144 28.9153 24.374C29.0878 24.6039 29.1453 24.8913 29.1453 25.2362C29.1453 25.5812 29.0878 25.8111 28.9153 26.0985C28.7429 26.3285 28.5704 26.5584 28.283 26.6734C27.9955 26.7884 27.7081 26.9033 27.4207 26.9033C27.1333 26.9033 26.8458 26.8458 26.5584 26.6734ZM28.1105 25.9836C28.283 25.8111 28.3979 25.5812 28.3979 25.2362C28.3979 24.9488 28.283 24.7189 28.1105 24.4889C27.9381 24.259 27.7081 24.2015 27.4207 24.2015C27.1333 24.2015 26.9033 24.3165 26.7308 24.4889C26.5584 24.6614 26.4434 24.8913 26.4434 25.2362C26.4434 25.5237 26.5584 25.7536 26.7308 25.9836C26.9033 26.156 27.1333 26.271 27.4207 26.271C27.7081 26.271 27.9381 26.156 28.1105 25.9836Z" fill="#E33171"/>
<path d="M32.7094 23.9716C32.9394 24.2015 33.0544 24.5464 33.0544 25.0063V26.8458H32.307V25.1213C32.307 24.8338 32.2496 24.6039 32.1346 24.4889C32.0196 24.374 31.7897 24.259 31.5597 24.259C31.2723 24.259 31.0424 24.3165 30.9274 24.4889C30.7549 24.6614 30.6974 24.8913 30.6974 25.2362V26.8458H29.8926V23.6266H30.5825V24.029C30.6974 23.8566 30.8699 23.7416 31.0424 23.6841C31.2148 23.6266 31.4448 23.5692 31.6747 23.5692C32.1346 23.5692 32.422 23.6841 32.7094 23.9716Z" fill="#E33171"/>
<path d="M36.8484 23.9716C37.0783 24.2015 37.1933 24.5464 37.1933 25.0063V26.8458H36.446V25.1213C36.446 24.8338 36.3885 24.6039 36.2735 24.4889C36.1585 24.374 35.9286 24.259 35.6987 24.259C35.4112 24.259 35.1813 24.3165 35.0663 24.4889C34.8939 24.6614 34.8364 24.8913 34.8364 25.2362V26.8458H34.0891V23.6266H34.7789V24.029C34.8939 23.8566 35.0663 23.7416 35.2388 23.6841C35.4112 23.6266 35.6412 23.5692 35.8711 23.5692C36.2735 23.5692 36.5609 23.6841 36.8484 23.9716Z" fill="#E33171"/>
<path d="M41.2173 25.4662H38.6879C38.7454 25.6961 38.8604 25.8686 39.0328 26.041C39.2053 26.156 39.4352 26.271 39.7227 26.271C40.0676 26.271 40.355 26.156 40.5849 25.9261L40.9874 26.386C40.8149 26.5584 40.6424 26.6734 40.4125 26.7884C40.1826 26.9033 39.9526 26.9033 39.6652 26.9033C39.3203 26.9033 38.9753 26.8458 38.7454 26.6734C38.458 26.5584 38.2855 26.3285 38.1131 26.0985C37.9406 25.8686 37.8831 25.5812 37.8831 25.2362C37.8831 24.9488 37.9406 24.6614 38.1131 24.374C38.228 24.144 38.458 23.9141 38.6879 23.7991C38.9179 23.6841 39.2053 23.5692 39.5502 23.5692C39.8376 23.5692 40.1251 23.6266 40.4125 23.7991C40.6424 23.9141 40.8724 24.144 40.9874 24.374C41.1023 24.6039 41.2173 24.8913 41.2173 25.2362C41.2173 25.2937 41.2173 25.4087 41.2173 25.4662ZM38.9753 24.4314C38.8029 24.5464 38.6879 24.7764 38.6879 25.0063H40.5275C40.47 24.7764 40.4125 24.6039 40.24 24.4314C40.0676 24.259 39.8951 24.2015 39.6077 24.2015C39.3203 24.2015 39.1478 24.259 38.9753 24.4314Z" fill="#E33171"/>
<path d="M42.5395 26.6734C42.252 26.5584 42.0796 26.3285 41.9071 26.0985C41.7347 25.8686 41.6772 25.5812 41.6772 25.2362C41.6772 24.8913 41.7347 24.6614 41.9071 24.374C42.0796 24.144 42.252 23.9141 42.5395 23.7991C42.8269 23.6841 43.1143 23.5692 43.4592 23.5692C43.8042 23.5692 44.0341 23.6266 44.3215 23.7416C44.5515 23.8566 44.7239 24.029 44.8389 24.3165L44.264 24.6614C44.1491 24.4889 44.0341 24.374 43.9191 24.3165C43.8042 24.259 43.6317 24.2015 43.4592 24.2015C43.1718 24.2015 42.9419 24.3165 42.7694 24.4889C42.597 24.6614 42.482 24.8913 42.482 25.2362C42.482 25.5237 42.597 25.8111 42.7694 25.9836C42.9419 26.156 43.1718 26.271 43.4592 26.271C43.6317 26.271 43.8042 26.2135 43.9191 26.156C44.0341 26.0985 44.1491 25.9836 44.264 25.8111L44.8389 26.156C44.7239 26.386 44.5515 26.5584 44.3215 26.7309C44.0916 26.8458 43.8042 26.9033 43.5167 26.9033C43.0568 26.9033 42.7694 26.8458 42.5395 26.6734Z" fill="#E33171"/>
<path d="M47.4258 26.6735C47.3108 26.731 47.2533 26.7884 47.0809 26.8459C46.9084 26.9034 46.7934 26.9034 46.6784 26.9034C46.3335 26.9034 46.0461 26.7884 45.8736 26.616C45.7012 26.4435 45.5862 26.1561 45.5862 25.8112V24.2591H45.0688V23.6842H45.5862V22.9369H46.3335V23.6842H47.1958V24.2591H46.3335V25.8112C46.3335 25.9836 46.391 26.0986 46.4485 26.1561C46.506 26.2136 46.621 26.2711 46.7934 26.2711C46.9659 26.2711 47.0808 26.2136 47.1958 26.1561L47.4258 26.6735Z" fill="#E33171"/>
<path d="M48.0581 22.9369C47.9432 22.8219 47.9432 22.7644 47.9432 22.592C47.9432 22.477 48.0007 22.362 48.0581 22.2471C48.1731 22.1321 48.2881 22.1321 48.4031 22.1321C48.518 22.1321 48.633 22.1896 48.748 22.2471C48.8629 22.3045 48.8629 22.4195 48.8629 22.5345C48.8629 22.6495 48.8055 22.7644 48.748 22.8794C48.633 22.9944 48.518 22.9944 48.4031 22.9944C48.2881 23.1093 48.1731 23.0519 48.0581 22.9369ZM48.0581 23.6267H48.8055V26.8459H48.0581V23.6267Z" fill="#E33171"/>
<path d="M52.7719 23.6266L51.3923 26.8459H50.5875L49.2078 23.6266H50.0126L50.9899 26.0411L52.0246 23.6266H52.7719Z" fill="#E33171"/>
<path d="M53.2893 22.9369C53.1743 22.8219 53.1743 22.7644 53.1743 22.592C53.1743 22.477 53.2318 22.362 53.2893 22.2471C53.4043 22.1321 53.5192 22.1321 53.6342 22.1321C53.7492 22.1321 53.8641 22.1896 53.9791 22.2471C54.0941 22.3045 54.0941 22.4195 54.0941 22.5345C54.0941 22.6495 54.0366 22.7644 53.9791 22.8794C53.8641 22.9944 53.7492 22.9944 53.6342 22.9944C53.5192 23.1093 53.4043 23.0519 53.2893 22.9369ZM53.2893 23.6267H54.0366V26.8459H53.2893V23.6267Z" fill="#E33171"/>
<path d="M56.9684 26.6735C56.8535 26.731 56.796 26.7884 56.6235 26.8459C56.4511 26.9034 56.3361 26.9034 56.2211 26.9034C55.8762 26.9034 55.5888 26.7884 55.4163 26.616C55.2439 26.4435 55.1289 26.1561 55.1289 25.8112V24.2591H54.6115V23.6842H55.1289V22.9369H55.8762V23.6842H56.7385V24.2591H55.8762V25.8112C55.8762 25.9836 55.9337 26.0986 55.9912 26.1561C56.0487 26.2136 56.1636 26.2711 56.3361 26.2711C56.5085 26.2711 56.6235 26.2136 56.7385 26.1561L56.9684 26.6735Z" fill="#E33171"/>
<path d="M60.5325 23.6266L59.0379 27.1333C58.9229 27.4782 58.7504 27.7081 58.5205 27.8806C58.348 27.9956 58.0606 28.1105 57.7732 28.1105C57.6007 28.1105 57.4283 28.1105 57.3133 28.0531C57.1408 27.9956 57.0259 27.9381 56.9109 27.8231L57.1983 27.2483C57.2558 27.3057 57.3708 27.3632 57.4283 27.4207C57.5432 27.4782 57.6007 27.4782 57.7157 27.4782C57.8307 27.4782 57.9456 27.4207 58.0606 27.3632C58.1756 27.3057 58.2331 27.1908 58.2905 27.0183L58.348 26.9033L56.9684 23.6841H57.7732L58.8079 26.0411L59.8427 23.6841H60.5325V23.6266Z" fill="#E33171"/>
<path d="M63.1194 26.7884C62.832 26.6734 62.602 26.5584 62.3721 26.4435L62.6595 25.8111C62.832 25.9261 63.0619 26.0411 63.2918 26.156C63.5218 26.271 63.8092 26.271 64.0392 26.271C64.3266 26.271 64.614 26.2135 64.729 26.0986C64.844 25.9836 64.9589 25.8686 64.9589 25.6962C64.9589 25.5812 64.9014 25.4662 64.844 25.4087C64.7865 25.3512 64.6715 25.2938 64.499 25.2363C64.3841 25.1788 64.2116 25.1213 63.9817 25.0638C63.6368 25.0063 63.4068 24.8913 63.1769 24.8339C63.0044 24.7764 62.832 24.6614 62.6595 24.4889C62.5445 24.3165 62.4296 24.0865 62.4296 23.8566C62.4296 23.6267 62.487 23.3967 62.602 23.2243C62.717 23.0518 62.9469 22.8793 63.1769 22.7644C63.4068 22.6494 63.7517 22.5919 64.0966 22.5919C64.3266 22.5919 64.614 22.6494 64.844 22.7069C65.0739 22.7644 65.3038 22.8793 65.4763 22.9943L65.2464 23.6267C65.0739 23.5117 64.844 23.4542 64.6715 23.3967C64.499 23.3392 64.2691 23.3392 64.0966 23.3392C63.8092 23.3392 63.5793 23.3967 63.4068 23.5117C63.2344 23.6267 63.1769 23.7416 63.1769 23.9141C63.1769 24.0291 63.2344 24.144 63.2918 24.2015C63.4068 24.259 63.4643 24.3165 63.6368 24.374C63.7517 24.4315 63.9242 24.4889 64.1541 24.5464C64.4416 24.6039 64.729 24.7189 64.9014 24.7764C65.0739 24.8339 65.2464 24.9488 65.4188 25.1213C65.5338 25.2937 65.6488 25.5237 65.6488 25.7536C65.6488 25.9836 65.5913 26.2135 65.4763 26.386C65.3613 26.5584 65.1314 26.7309 64.9014 26.8459C64.6715 26.9608 64.3266 27.0183 63.9817 27.0183C63.6942 26.9034 63.4068 26.8459 63.1194 26.7884Z" fill="#E33171"/>
<path d="M67.0284 26.6734C66.741 26.5584 66.5685 26.3285 66.3961 26.0985C66.2236 25.8686 66.1661 25.5812 66.1661 25.2362C66.1661 24.8913 66.2236 24.6614 66.3961 24.374C66.5685 24.144 66.741 23.9141 67.0284 23.7991C67.3159 23.6841 67.6033 23.5692 67.8907 23.5692C68.2356 23.5692 68.5231 23.6266 68.753 23.7991C69.0404 23.9141 69.2129 24.144 69.3853 24.374C69.5578 24.6039 69.6153 24.8913 69.6153 25.2362C69.6153 25.5812 69.5578 25.8111 69.3853 26.0985C69.2129 26.3285 69.0404 26.5584 68.753 26.6734C68.4656 26.7884 68.1781 26.9033 67.8907 26.9033C67.5458 26.9033 67.2584 26.8458 67.0284 26.6734ZM68.5805 25.9836C68.753 25.8111 68.868 25.5812 68.868 25.2362C68.868 24.9488 68.753 24.7189 68.5805 24.4889C68.4081 24.3165 68.1781 24.2015 67.8907 24.2015C67.6033 24.2015 67.3733 24.3165 67.2009 24.4889C67.0284 24.6614 66.9135 24.8913 66.9135 25.2362C66.9135 25.5237 67.0284 25.7536 67.2009 25.9836C67.3733 26.2135 67.6033 26.271 67.8907 26.271C68.1781 26.271 68.4081 26.156 68.5805 25.9836Z" fill="#E33171"/>
<path d="M70.3626 22.3619H71.1099V26.8458H70.3626V22.3619Z" fill="#E33171"/>
<path d="M75.1913 23.6266V26.8459H74.5015V26.4435C74.3865 26.6159 74.2141 26.6734 74.0416 26.7884C73.8692 26.8459 73.6392 26.9033 73.4668 26.9033C73.0644 26.9033 72.7194 26.7884 72.432 26.5584C72.2021 26.3285 72.0871 25.9836 72.0871 25.4662V23.6266H72.8344V25.3512C72.8344 25.6387 72.8919 25.8686 73.0069 25.9836C73.1218 26.0985 73.3518 26.2135 73.5817 26.2135C73.8692 26.2135 74.0416 26.156 74.2141 25.9836C74.3865 25.8111 74.444 25.5812 74.444 25.2362V23.6266H75.1913Z" fill="#E33171"/>
<path d="M78.1231 26.6735C78.0082 26.731 77.9507 26.7884 77.7782 26.8459C77.6058 26.9034 77.4908 26.9034 77.3758 26.9034C77.0309 26.9034 76.7435 26.7884 76.571 26.616C76.3986 26.4435 76.2836 26.1561 76.2836 25.8112V24.2591H75.7662V23.6842H76.2836V22.9369H77.0309V23.6842H77.8932V24.2591H77.0309V25.8112C77.0309 25.9836 77.0884 26.0986 77.1459 26.1561C77.2034 26.2136 77.3184 26.2711 77.4908 26.2711C77.6633 26.2711 77.7782 26.2136 77.8932 26.1561L78.1231 26.6735Z" fill="#E33171"/>
<path d="M78.813 22.9369C78.698 22.8219 78.698 22.7644 78.698 22.592C78.698 22.477 78.7555 22.362 78.813 22.2471C78.9279 22.1321 79.0429 22.1321 79.1579 22.1321C79.2729 22.1321 79.3878 22.1896 79.5028 22.2471C79.6178 22.3045 79.6178 22.4195 79.6178 22.5345C79.6178 22.6495 79.5603 22.7644 79.5028 22.8794C79.4453 22.9944 79.2729 22.9944 79.1579 22.9944C78.9854 23.1093 78.8705 23.0519 78.813 22.9369ZM78.7555 23.6267H79.5028V26.8459H78.7555V23.6267Z" fill="#E33171"/>
<path d="M81.055 26.6734C80.7676 26.5584 80.5951 26.3285 80.4227 26.0985C80.2502 25.8686 80.1927 25.5812 80.1927 25.2362C80.1927 24.8913 80.2502 24.6614 80.4227 24.374C80.5951 24.144 80.7676 23.9141 81.055 23.7991C81.3425 23.6841 81.6299 23.5692 81.9173 23.5692C82.2622 23.5692 82.5497 23.6266 82.7796 23.7991C83.067 23.9141 83.2395 24.144 83.412 24.374C83.5844 24.6039 83.6419 24.8913 83.6419 25.2362C83.6419 25.5812 83.5844 25.8111 83.412 26.0985C83.2395 26.3285 83.067 26.5584 82.7796 26.6734C82.4922 26.7884 82.2048 26.9033 81.9173 26.9033C81.6299 26.9033 81.3425 26.8458 81.055 26.6734ZM82.6072 25.9836C82.7796 25.8111 82.8946 25.5812 82.8946 25.2362C82.8946 24.9488 82.7796 24.7189 82.6072 24.4889C82.4347 24.3165 82.2048 24.2015 81.9173 24.2015C81.6299 24.2015 81.4 24.3165 81.2275 24.4889C81.055 24.6614 80.9401 24.8913 80.9401 25.2362C80.9401 25.5237 81.055 25.7536 81.2275 25.9836C81.4 26.2135 81.6299 26.271 81.9173 26.271C82.2048 26.271 82.4347 26.156 82.6072 25.9836Z" fill="#E33171"/>
<path d="M87.2059 23.9716C87.4359 24.2015 87.5508 24.5464 87.5508 25.0063V26.8458H86.8035V25.1213C86.8035 24.8338 86.746 24.6039 86.6311 24.4889C86.5161 24.374 86.2861 24.259 86.0562 24.259C85.7688 24.259 85.5388 24.3165 85.4239 24.4889C85.2514 24.6614 85.1939 24.8913 85.1939 25.2362V26.8458H84.4466V23.6266H85.1364V24.029C85.2514 23.8566 85.4239 23.7416 85.5963 23.6841C85.7688 23.6266 85.9987 23.5692 86.2287 23.5692C86.6311 23.5692 86.9185 23.6841 87.2059 23.9716Z" fill="#E33171"/>
<path d="M88.758 26.7884C88.5281 26.7309 88.2981 26.6159 88.1832 26.5009L88.4706 25.9261C88.6431 26.0411 88.8155 26.0985 88.988 26.156C89.2179 26.2135 89.3904 26.271 89.5628 26.271C90.0227 26.271 90.2527 26.156 90.2527 25.9261C90.2527 25.8111 90.1952 25.7536 90.0802 25.6961C89.9652 25.6386 89.7928 25.5812 89.5053 25.5812C89.2179 25.5237 89.0455 25.4662 88.873 25.4662C88.7005 25.4087 88.5856 25.3512 88.4131 25.1788C88.2981 25.0638 88.2407 24.8913 88.2407 24.6614C88.2407 24.374 88.3556 24.0865 88.6431 23.9141C88.9305 23.7416 89.2179 23.6266 89.6778 23.6266C89.9077 23.6266 90.1377 23.6266 90.3676 23.6841C90.5976 23.7416 90.77 23.7991 90.885 23.9141L90.5976 24.4889C90.3101 24.3165 90.0227 24.259 89.6778 24.259C89.4479 24.259 89.2754 24.3165 89.1604 24.374C89.0455 24.4314 88.988 24.5464 88.988 24.6614C88.988 24.7764 89.0455 24.8913 89.1604 24.8913C89.2754 24.9488 89.4479 25.0063 89.7353 25.0063C89.9652 25.0638 90.1952 25.1213 90.3676 25.1213C90.5401 25.1788 90.6551 25.2362 90.77 25.4087C90.885 25.5812 90.9425 25.6961 90.9425 25.9261C90.9425 26.2135 90.8275 26.4435 90.5401 26.6734C90.2527 26.8459 89.9077 26.9608 89.4479 26.9608C89.2754 26.9033 88.988 26.8459 88.758 26.7884Z" fill="#E33171"/>
</svg>
