<svg width="46" height="27" viewBox="0 0 46 27" fill="none" xmlns="http://www.w3.org/2000/svg">
<path d="M12.7603 9.29452C11.6575 8.66439 10.2397 8.19178 8.66439 8.19178C6.77398 8.19178 5.0411 8.82192 3.46576 10.0822V0L0 0.630137V25.6781H3.30822V24.1027C4.72603 25.363 6.45891 25.9932 8.50685 25.9932C10.0822 25.9932 11.6575 25.5206 12.7603 24.8904C15.2808 23.3151 17.1712 20.4795 17.1712 17.1712C17.1712 13.863 15.2808 10.8699 12.7603 9.29452ZM8.03425 22.6849C6.30137 22.6849 4.56849 21.7397 3.30822 20.3219V14.0206C4.41096 12.6027 6.14384 11.6575 8.19179 11.6575C11.5 11.6575 13.7055 14.3356 13.7055 17.3288C13.7055 20.1644 11.3425 22.6849 8.03425 22.6849Z" fill="#1E1936"/>
<path d="M46 22.2124C44.5822 24.5754 41.4315 26.3083 38.4384 26.3083C33.0822 26.3083 29.3014 22.3699 29.3014 17.3288C29.3014 12.2877 33.0822 8.34937 38.2808 8.34937C41.274 8.34937 43.9521 9.92471 45.5274 12.1302L43.0069 14.3357C42.0617 13.0754 40.4863 11.8151 38.2808 11.8151C35.1301 11.8151 32.7671 14.1781 32.7671 17.4864C32.7671 20.7946 35.1301 23.1576 38.4384 23.1576C40.6438 23.1576 42.3767 21.8973 43.4795 20.4795L46 22.2124Z" fill="#E33171"/>
</svg>
